<?xml version="1.0" encoding="utf-8"?>
<!-- Generator: Adobe Illustrator 17.0.1, SVG Export Plug-In . SVG Version: 6.00 Build 0)  -->
<!DOCTYPE svg PUBLIC "-//W3C//DTD SVG 1.1//EN" "http://www.w3.org/Graphics/SVG/1.1/DTD/svg11.dtd">
<svg version="1.1" id="Layer_1" xmlns="http://www.w3.org/2000/svg" xmlns:xlink="http://www.w3.org/1999/xlink" x="0px" y="0px"
	 width="500px" height="500px" viewBox="0 0 500 500" enable-background="new 0 0 500 500" xml:space="preserve">
<g opacity="0.2">
	<path fill="none" d="M344.302,220.135c-7.699,0-8.14,10.445-8.14,16.967s-0.098,20.449,8.042,20.449
		c8.042,0,8.435-11.23,8.435-18.095c0-4.512-0.196-9.906-1.569-14.172C349.941,221.607,347.587,220.135,344.302,220.135z"/>
	<path d="M288.005,283.395c-21.92,9.268-45.704,13.78-67.379,13.78c-32.12,0-63.162-8.827-88.319-23.441
		c-2.207-1.275-3.825,0.981-2.011,2.648c23.293,21.038,54.09,33.69,88.27,33.69c24.421,0,52.766-7.65,72.283-22.067
		C294.086,285.602,291.34,282.022,288.005,283.395z"/>
	<path d="M275.696,275.255c-1.716,1.226-1.422,2.893,0.49,2.648c6.277-0.736,20.302-2.403,22.803,0.785
		c2.501,3.237-2.746,16.428-5.149,22.264c-0.687,1.814,0.834,2.55,2.452,1.177c10.494-8.778,13.191-27.168,11.034-29.816
		C305.218,269.665,286.877,267.409,275.696,275.255z"/>
	<path d="M313.947,252.991c-5.983-3.335-12.946-4.315-19.517-4.168l17.703-25.304c1.667-2.256,2.599-3.727,2.599-4.806v-6.571
		c0-1.128-0.883-1.913-1.962-1.913h-34.229c-1.03,0-1.913,0.736-1.913,1.913v7.65c0,1.128,0.883,1.913,1.962,1.913h17.899
		l-20.547,29.472c-1.275,1.913-1.275,4.021-1.275,5.247v7.748c0,1.128,1.275,2.403,2.452,1.765
		c11.622-6.179,25.598-5.541,36.142-0.049c1.275,0.638,2.501-0.638,2.501-1.765v-8.14
		C315.663,254.855,315.271,253.727,313.947,252.991z"/>
	<path d="M141.428,267.458h10.396c1.079,0,2.011-0.834,2.01-2.011v-28.295c0-6.179-0.294-14.712,7.209-14.712
		c7.405,0,6.424,8.729,6.424,14.712v28.344c0,1.03,0.834,1.863,1.863,1.912h10.396c1.128,0,2.011-0.834,2.011-1.912v-28.295
		c0-3.04-0.098-7.552,0.981-10.249c1.079-2.697,3.678-4.364,6.228-4.364c3.04,0,5.345,1.03,6.13,4.61
		c0.49,2.158,0.294,7.748,0.294,10.004v28.344c0,1.03,0.834,1.863,1.863,1.913h10.396c1.128,0,2.011-0.834,2.011-1.913v-33.69
		c0-5.738,0.638-12.26-2.648-16.771c-2.942-4.021-7.699-5.836-12.064-5.836c-6.13,0-11.867,3.138-14.368,9.906
		c-2.893-6.767-6.964-9.906-13.486-9.906c-6.375,0-11.132,3.138-13.682,9.906h-0.196v-6.964c-0.098-0.981-0.883-1.765-1.913-1.814
		h-9.71c-1.128,0-2.011,0.834-2.011,1.913v53.403C139.663,266.624,140.447,267.409,141.428,267.458z"/>
	<path d="M344.204,209.249c-15.055,0-23.392,12.946-23.441,29.521c0,16.526,8.288,29.816,23.441,29.816
		c14.565,0,23.784-12.946,23.784-29.227C367.987,222.538,359.651,209.249,344.204,209.249z M344.204,257.552
		c-8.14,0-8.042-13.927-8.042-20.449s0.441-16.967,8.14-16.967c3.286,0,5.639,1.471,6.767,5.149
		c1.373,4.266,1.569,9.661,1.569,14.172C352.638,246.322,352.246,257.552,344.204,257.552z"/>
	<path d="M415.898,215.526c-2.942-4.61-7.503-6.277-12.162-6.277c-7.16,0-11.279,3.482-14.172,10.789h-0.196v-8.19
		c-0.196-0.834-0.932-1.471-1.863-1.52h-9.661c-1.079,0-1.912,0.785-2.011,1.765v53.452c0,1.03,0.834,1.864,1.863,1.913h10.347
		c1.128,0,2.011-0.834,2.011-1.913V236.76c0-3.58,0.196-6.865,1.667-10.102c1.177-2.599,3.482-4.266,6.032-4.266
		c7.209,0,6.522,8.533,6.522,14.368v29.031c0.098,0.883,0.883,1.618,1.863,1.667h10.445c1.03,0,1.912-0.736,2.011-1.667V232.15
		C418.596,227.001,418.596,219.792,415.898,215.526z"/>
	<path d="M249.313,231.365c-6.032,0.687-13.927,1.128-19.567,3.629c-6.522,2.844-11.083,8.582-11.083,17.016
		c0,10.838,6.816,16.232,15.594,16.232c7.405,0,11.426-1.716,17.164-7.552c1.913,2.697,2.55,4.021,5.983,6.914
		c0.785,0.392,1.765,0.392,2.452-0.245c2.109-1.863,5.885-5.1,7.895-6.914c0.883-0.687,0.736-1.814,0.049-2.746
		c-1.913-2.648-3.923-4.806-3.923-9.661v-16.232c0-6.865,0.49-13.191-4.561-17.899c-4.021-3.825-10.641-5.198-15.692-5.198
		c-9.906,0-20.989,3.678-23.293,15.938c-0.245,1.275,0.736,1.962,1.569,2.158l10.102,1.079c0.932-0.049,1.618-0.981,1.814-1.913
		c0.883-4.217,4.414-6.228,8.386-6.228c2.158,0,4.561,0.785,5.836,2.697c1.471,2.158,1.275,5.051,1.275,7.552V231.365z
		 M249.362,239.653v2.305c0,4.07,0.098,7.454-1.962,11.034c-1.667,2.942-4.266,4.708-7.209,4.708c-3.972,0-6.326-3.04-6.326-7.552
		C233.866,241.271,241.811,239.653,249.362,239.653z"/>
	<path d="M131.326,257.699c-1.912-2.648-3.923-4.806-3.923-9.661v-16.232c0-6.865,0.49-13.191-4.561-17.899
		c-4.021-3.825-10.641-5.198-15.692-5.198c-9.906,0-20.989,3.678-23.293,15.938c-0.245,1.275,0.736,1.962,1.569,2.158l10.102,1.079
		c0.932-0.049,1.618-0.981,1.814-1.913c0.883-4.217,4.414-6.228,8.386-6.228c2.158,0,4.561,0.785,5.836,2.697
		c1.471,2.158,1.275,5.051,1.275,7.552v1.373c-6.032,0.687-13.927,1.128-19.567,3.629c-6.522,2.844-11.083,8.582-11.083,17.016
		c0,10.838,6.816,16.232,15.594,16.232c7.405,0,11.426-1.716,17.164-7.552c1.913,2.697,2.501,4.021,5.983,6.914
		c0.785,0.392,1.765,0.392,2.452-0.245c2.109-1.863,5.885-5.1,7.895-6.914C132.16,259.759,132.013,258.631,131.326,257.699z
		 M110.926,252.991c-1.667,2.942-4.266,4.708-7.209,4.708c-3.972,0-6.326-3.04-6.326-7.552c0-8.876,7.944-10.494,15.496-10.494
		v2.305C112.887,246.028,112.985,249.412,110.926,252.991z"/>
</g>
</svg>
