<?xml version="1.0" encoding="utf-8"?>
<!-- Generator: Adobe Illustrator 17.0.1, SVG Export Plug-In . SVG Version: 6.00 Build 0)  -->
<!DOCTYPE svg PUBLIC "-//W3C//DTD SVG 1.1//EN" "http://www.w3.org/Graphics/SVG/1.1/DTD/svg11.dtd">
<svg version="1.1" id="Layer_1" xmlns="http://www.w3.org/2000/svg" xmlns:xlink="http://www.w3.org/1999/xlink" x="0px" y="0px"
	 width="500px" height="500px" viewBox="0 0 500 500" enable-background="new 0 0 500 500" xml:space="preserve">
<g opacity="0.2">
	<g>
		<path d="M284.474,249.951c-0.147-18.291,14.957-27.168,15.643-27.56c-8.582-12.505-21.822-14.172-26.53-14.319
			c-11.132-1.177-21.969,6.669-27.658,6.669c-5.787,0-14.565-6.571-23.98-6.375c-12.113,0.196-23.49,7.209-29.718,18.095
			c-12.848,22.215-3.286,54.924,9.023,72.872c6.179,8.827,13.339,18.635,22.754,18.291c9.219-0.392,12.652-5.885,23.784-5.885
			c11.034,0,14.221,5.885,23.833,5.639c9.906-0.147,16.134-8.827,22.068-17.703c7.111-10.102,9.955-20.008,10.102-20.547
			C303.599,279.08,284.621,271.871,284.474,249.951z"/>
		<path d="M266.33,196.204c4.953-6.179,8.337-14.614,7.405-23.195c-7.16,0.294-16.134,4.953-21.283,11.034
			c-4.561,5.345-8.631,14.074-7.601,22.313C252.893,206.993,261.132,202.334,266.33,196.204z"/>
	</g>
</g>
</svg>
