<?xml version="1.0" encoding="utf-8"?>
<!-- Generator: Adobe Illustrator 17.0.1, SVG Export Plug-In . SVG Version: 6.00 Build 0)  -->
<!DOCTYPE svg PUBLIC "-//W3C//DTD SVG 1.1//EN" "http://www.w3.org/Graphics/SVG/1.1/DTD/svg11.dtd">
<svg version="1.1" id="Layer_1" xmlns="http://www.w3.org/2000/svg" xmlns:xlink="http://www.w3.org/1999/xlink" x="0px" y="0px"
	 width="500px" height="500px" viewBox="0 0 500 500" enable-background="new 0 0 500 500" xml:space="preserve">
<g id="Layer_x0020_1" opacity="0.2">
	<g id="g10326">
		<path id="path10342" d="M118.429,185.416c-12.456,0.343-22.509,1.913-24.765,4.315c-1.962,2.158-4.463,3.923-4.561,6.816
			c-0.098,2.844,3.237,3.089,5.247,3.089s3.825-0.147,3.825-1.373c0-1.618-2.648-1.324-2.648-2.942
			c0-1.913,10.298-2.354,15.447-2.354c44.184-0.147,95.037,30.453,95.086,56.395c0.098,20.155-26.187,24.667-40.653,24.716
			c-5.149,0.049-10.151-0.539-14.908-1.422c-0.196-6.473-0.588-19.91-0.785-28.443c1.667-0.049,3.237-0.049,4.61-0.049
			c10.69-0.049,24.765,3.727,24.814,6.228c0,2.158-3.727,3.629-3.727,5.688c0.049,1.52,3.482,1.275,6.473,1.471
			c0.539,0.049,6.62-3.335,6.571-8.68c0-7.062-8.827-15.447-37.613-15.349c-0.392,0-0.834,0.049-1.226,0.049
			c-0.294-7.944-1.422-20.449-5.934-20.449c-3.727,0.049-4.806,13.78-5.149,21.43c-16.134,2.403-30.502,8.974-30.453,15.447
			c0,5.296,11.524,18.635,30.208,26.726c0.294,5.983,1.471,10.102,6.767,10.053c3.874,0,5.149-2.844,5.59-5.836
			c6.032,1.569,12.603,2.403,19.517,2.403c27.118-0.098,48.843-14.565,48.745-34.376
			C218.762,222.342,165.065,184.092,118.429,185.416L118.429,185.416z M111.171,251.569c0-4.61,14.123-6.375,27.118-7.013
			c-0.098,7.258-0.196,17.752-0.196,24.667C122.058,263.584,111.171,254.61,111.171,251.569z"/>
		<path id="path10344" d="M228.57,234.209c-4.61,0.049-4.708,18.488-4.806,25.206c-0.294,15.398,1.962,17.213,6.032,17.164
			c3.678,0,4.953-0.441,4.61-13.29C233.817,238.917,232.15,234.209,228.57,234.209L228.57,234.209z"/>
		<path id="path10346" d="M230.924,227.197c10.151-0.049,26.285-11.524,26.236-21.087c0-4.315-2.207-6.473-7.797-7.307
			c-2.354-2.207-5.738-4.708-10.838-4.708c-15.791,0.049-25.991,12.603-25.991,19.419c0,2.55,0.834,5.639,3.089,8.239
			c0.098,5.443,1.422,6.865,3.188,6.865c1.962,0,3.138-1.128,3.923-2.55C224.99,226.854,227.736,227.246,230.924,227.197z
			 M232.003,219.449c-2.354,0-4.315-0.294-5.983-0.785c4.463-5.051,15.3-14.614,20.645-14.614c3.482-0.049,4.07,2.746,4.07,3.825
			C250.736,214.3,237.642,219.498,232.003,219.449L232.003,219.449z M232.738,202.481c-4.855,2.893-9.857,6.865-13.142,10.838
			c-0.147-0.539-0.245-1.03-0.245-1.52C219.302,208.709,223.813,204.002,232.738,202.481z"/>
		<path id="path10348" d="M283.444,237.495c-0.049-4.217-10.985-4.217-17.164-4.168c-4.61,0-28.099,0.539-28.05,13.633
			c0.049,8.876,13.142,6.718,21.871,7.601c7.111,0.687,15.741,2.991,15.741,5.345c0.049,5.149-18.782,7.258-22.656,7.307
			c-7.993,0-8.14-2.305-8.14-3.482s1.324-3.138,4.315-3.138c2.991,0,9.121,3.825,13.388,3.825c4.217-0.049,7.797-1.913,7.797-3.825
			c0-3.482-14.074-5.149-18.439-5.149c-4.561,0.049-11.132,1.913-11.132,8.729c0.049,3.531,5.836,11.965,22.215,11.916
			c16.134-0.049,20.204-9.219,20.155-13.927c-0.049-11.524-10.887-12.799-20.351-13.584c-7.062-0.588-14.761-0.932-14.712-2.501
			C248.235,240.781,283.444,244.704,283.444,237.495L283.444,237.495z"/>
		<path id="path10350" d="M310.22,227.785c-1.324,0-1.569,1.422-1.569,2.893c0.049,4.463,6.228,20.155,6.228,26.089
			c0,1.226-0.098,3.482-1.03,3.727c-1.471,0.441-14.466-23.244-19.812-23.588c-5.541-0.392-8.533,23.195-8.484,29.031
			c0.049,5.836,1.03,9.71,5.345,9.71c6.424-0.049,3.089-23.637,5.688-23.637c1.913,0,12.358,21.577,18.144,21.577
			c6.277-0.049,10.053-9.268,10.004-15.251C324.637,244.655,315.516,227.785,310.22,227.785L310.22,227.785z"/>
		<path id="path10352" d="M353.766,264.319c-2.256,0-14.81,2.795-15.643,2.011c-0.834-0.785,0.687-7.993,2.305-8.533
			c1.618-0.49,11.377-0.343,12.995-0.49c4.561-0.245,3.678-6.424,0.883-6.669c-1.422-0.098-10.347-0.147-10.789-0.981
			c-0.441-0.834,0.098-4.904,1.128-5.345c2.011-0.834,15.496-1.226,16.526-1.471c1.667-0.392,2.893-1.275,3.286-2.697
			c0.441-1.422-4.659-7.307-10.985-6.669c-10.789,1.226-24.863,1.128-24.863,4.659c0,3.286,6.571,4.61,6.718,5.541
			c0.196,0.883-0.834,4.364-1.226,5.394c-0.392,1.177-5.1,1.52-5.394,4.757c-0.098,0.736,1.177,1.913,0.883,2.795
			c-0.736,2.746-2.942,8.337-2.942,10.641c0.049,3.58,2.648,11.573,10.053,11.328c11.573-0.392,22.018-8.484,22.166-9.906
			c0.294-2.158-2.942-4.61-5.149-4.61L353.766,264.319z"/>
		<path id="path10354" d="M398.686,236.809c-6.326,0.343-18.488,13.78-25.598,22.803c-0.441-0.932-0.687-1.814-0.687-2.648
			c0-3.825,7.209-15.3,8.533-18.144c1.422-2.991-0.196-6.914-1.913-5.541c-3.433,2.746-14.221,15.349-14.172,27.118
			c0,2.697,0.687,5.983,2.207,8.974c-2.452,7.846-8.337,25.402-8.14,35.995c0.098,5.492,5.639,10.887,8.925,10.2
			c1.275-0.294,1.569-7.454,3.237-12.358c2.354-7.013,6.081-19.812,7.405-25.304c0.588,0.049,1.226,0.098,1.863,0.098
			c13.241-0.049,27.854-14.123,27.854-26.285C408.199,239.653,400.991,236.71,398.686,236.809L398.686,236.809z M383.484,266.82
			c5.296-9.219,13.044-21.43,15.889-21.381c1.962,0.049,2.746,2.011,2.746,5.002C402.217,259.514,391.281,266.967,383.484,266.82z"
			/>
	</g>
</g>
</svg>
