<?xml version="1.0" encoding="utf-8"?>
<!-- Generator: Adobe Illustrator 17.0.1, SVG Export Plug-In . SVG Version: 6.00 Build 0)  -->
<!DOCTYPE svg PUBLIC "-//W3C//DTD SVG 1.1//EN" "http://www.w3.org/Graphics/SVG/1.1/DTD/svg11.dtd">
<svg version="1.1" id="Layer_1" xmlns="http://www.w3.org/2000/svg" xmlns:xlink="http://www.w3.org/1999/xlink" x="0px" y="0px"
	 width="500px" height="500px" viewBox="0 0 500 500" enable-background="new 0 0 500 500" xml:space="preserve">
<path opacity="0.2" d="M262.211,245.734c-3.335,0-5.738,1.128-8.14,2.207v24.912c2.207,0.196,3.678,0.196,5.885,0.196
	c7.944,0,9.023-3.678,9.023-8.68V252.55C269.027,248.676,267.752,245.734,262.211,245.734z M209.788,244.459
	c-5.541,0-6.669,2.942-6.669,6.816v2.011h13.486v-2.011C216.408,247.401,215.133,244.459,209.788,244.459z M108.033,270.302
	c0,2.942,1.471,4.414,4.413,4.414c3.335,0,5.149-1.128,7.552-2.207v-5.885h-7.209C109.504,266.624,108.033,267.36,108.033,270.302z
	 M313.358,245.734c-5.541,0-7.405,2.942-7.405,6.669v13.682c0,3.678,1.863,6.816,7.405,6.816s7.405-2.942,7.405-6.816v-13.682
	C320.714,248.676,318.9,245.734,313.358,245.734z M81.061,285.602H64.976v-39.133h-8.091v-13.486h8.14v-8.14
	c0-11.083,4.61-17.556,17.556-17.556h10.69v13.535h-6.669c-5.002,0-5.345,1.863-5.345,5.345v6.816h12.162l-1.471,13.486h-10.69
	v39.133L81.061,285.602L81.061,285.602z M136.279,285.602h-13.486l-0.539-3.335c-6.081,3.335-11.622,3.874-15.3,3.874
	c-9.808,0-15.153-6.669-15.153-15.692c0-10.69,6.081-14.565,17.164-14.565h11.083v-2.403c0-5.541-0.539-7.013-9.023-7.013H97.342
	l1.275-13.486h15.153c18.439,0,22.509,5.885,22.509,20.694V285.602z M182.081,247.401c-8.288-1.471-10.69-1.667-14.761-1.667
	c-7.209,0-9.415,1.667-9.415,7.748v11.622c0,6.081,2.207,7.748,9.415,7.748c4.07,0,6.473-0.392,14.761-1.863v13.093
	c-7.405,1.667-12.162,2.011-16.232,2.011c-17.36,0-24.176-9.023-24.176-22.362v-9.415c0-13.093,6.816-22.362,24.176-22.362
	c4.07,0,8.876,0.392,16.232,2.011V247.401z M232.64,264.025h-29.521v1.128c0,6.081,2.207,7.748,9.415,7.748
	c6.473,0,10.543-0.392,18.831-1.863v13.093c-8.14,1.667-12.162,2.011-20.106,2.011c-17.36,0-24.176-9.023-24.176-22.362v-10.69
	c0-11.426,5.149-21.038,22.901-21.038s22.901,9.415,22.901,21.038v10.887h-0.245V264.025z M285.112,264.221
	c0,12.75-3.678,21.969-25.647,21.969c-7.944,0-12.554-0.736-21.43-2.011v-72.774l16.085-2.746v25.5
	c3.531-1.275,7.944-2.011,12.162-2.011c16.085,0,18.831,7.209,18.831,18.831V264.221L285.112,264.221z M336.799,264.565
	c0,10.887-4.61,21.577-23.441,21.577c-19.027,0-23.637-10.69-23.637-21.577v-10.69c0-11.083,4.61-21.577,23.637-21.577
	s23.441,10.69,23.441,21.577V264.565z M388.682,264.565c0,10.887-4.61,21.577-23.441,21.577c-19.027,0-23.637-10.69-23.637-21.577
	v-10.69c0-11.083,4.61-21.577,23.637-21.577s23.441,10.69,23.441,21.577V264.565z M441.644,285.602h-17.556l-14.761-24.765v24.765
	h-16.036v-74.196l16.085-2.746v47.617l14.761-23.441h17.556l-16.232,25.647L441.644,285.602z M365.045,245.734
	c-5.541,0-7.405,2.942-7.405,6.669v13.682c0,3.678,1.863,6.816,7.405,6.816s7.405-2.942,7.405-6.816v-13.682
	C372.45,248.676,370.587,245.734,365.045,245.734z"/>
</svg>
