<?xml version="1.0" encoding="utf-8"?>
<!-- Generator: Adobe Illustrator 17.0.1, SVG Export Plug-In . SVG Version: 6.00 Build 0)  -->
<!DOCTYPE svg PUBLIC "-//W3C//DTD SVG 1.1//EN" "http://www.w3.org/Graphics/SVG/1.1/DTD/svg11.dtd">
<svg version="1.1" id="Layer_1" xmlns="http://www.w3.org/2000/svg" xmlns:xlink="http://www.w3.org/1999/xlink" x="0px" y="0px"
	 width="500px" height="500px" viewBox="0 0 500 500" enable-background="new 0 0 500 500" xml:space="preserve">
<g opacity="0.2">
	<path d="M440.516,279.178c-3.825,2.011-9.514,2.746-13.976,2.844c-9.023,0.147-16.281-5.983-20.989-13.339
		c-3.04-4.708-5.002-10.102-5.492-15.889c-0.736-8.876,1.422-19.125,11.475-21.626c6.669-1.667,12.995,2.06,15.447,8.484
		c1.128,2.942,0.441,4.413-2.256,5.541l-24.127,10.102l8.239,0.539c9.808-4.07,20.743-7.846,30.551-11.916
		c2.011-0.834,2.158-0.981,1.422-3.089c-4.266-12.162-20.302-18.733-33.935-13.044c-10.789,4.512-18.586,15.889-18.586,28.639
		c0,17.164,12.407,32.415,29.227,32.415c7.699,0,13.191-1.079,18.095-4.168c1.03-0.981,6.964-5.689,7.013-6.718
		C442.625,277.707,441.791,278.443,440.516,279.178z"/>
	<path d="M377.011,276.481c0.147-24.078-0.49-48.352,0.539-72.43c0.147-2.109,0.343-4.414,1.128-5.639
		c1.079-1.716,1.913-2.403,4.414-4.021c-6.13,0-11.916,0-18.046,0c-3.58,1.569-6.816,4.07-10.2,5.836
		c3.629-0.098,6.865-0.049,10.494-0.147c-1.52,24.274-0.539,48.401-0.687,73.558c0.196,7.503-1.275,9.415-4.168,12.407
		c7.699,0,15.055,0.147,22.754,0.147c1.618-0.932,3.727-3.089,5.002-4.168C379.708,282.268,377.109,283.052,377.011,276.481z"/>
	<path d="M358.327,227.589c-10.985-0.049-21.381-0.049-32.66-0.049c-10.789,0-20.498,5.247-24.863,14.614
		c-2.011,4.315-2.795,9.808-1.52,15.104c2.55,10.396,13.437,17.311,23.98,15.692c1.177-0.147,1.52-0.539,0.932,0.539
		c-2.354,4.119-0.638,10.249,3.923,13.24c-2.991-0.196-6.228-0.294-9.857,0.147c-12.897,1.52-27.168,8.14-26.432,22.068
		c0.588,10.74,11.475,18.635,28.737,18.733c13.878-0.049,26.971-4.413,32.464-14.27c5.787-10.347,2.354-20.989-6.326-27.511
		c-3.972-2.991-10.838-7.062-10.396-12.701c0.147-1.962,1.52-3.972,4.217-5.541c4.757-2.795,7.993-6.473,9.612-10.74
		c1.716-4.512,1.471-9.415-0.196-13.829c-1.52-4.168-4.365-7.895-8.091-10.494h8.778L358.327,227.589z M336.456,293.007
		c7.552,4.806,10.004,10.641,9.366,16.085c-0.736,6.522-7.013,11.671-17.703,12.309c-11.426,0.687-26.873-3.825-24.029-18.88
		c1.52-8.042,12.162-12.162,20.989-12.456c2.452-0.049,4.953,0.147,7.356,0.196C333.709,291.193,335.082,292.124,336.456,293.007z
		 M330.669,268.831c-7.699,2.158-16.232-3.874-18.978-14.614c-2.991-11.769,0.098-19.272,7.356-21.528
		c8.582-2.648,17.801,5.1,19.91,17.801C340.33,258.827,338.221,266.722,330.669,268.831z"/>
	<path d="M292.762,255.738c-0.981-16.134-11.769-29.865-32.464-29.865c-17.948,0-32.562,13.976-32.513,31.042
		c0,19.566,17.016,33.003,36.485,30.943C280.502,286.142,293.743,271.773,292.762,255.738z M266.428,283.003
		c-10.838,2.501-22.313-6.473-25.206-21.773c-3.138-16.771,2.06-27.805,12.309-30.502c12.113-3.188,24.47,9.023,26.285,27.069
		C280.993,269.616,277.02,280.551,266.428,283.003z"/>
	<path d="M189.339,225.873c-18.095,0-32.905,13.976-32.905,31.042c0,19.566,17.213,33.003,36.926,30.943
		c16.428-1.716,29.816-16.085,28.835-32.12C221.214,239.604,210.279,225.873,189.339,225.873z M195.616,283.003
		c-10.985,2.501-22.607-6.473-25.5-21.773c-3.188-16.771,2.06-27.805,12.456-30.502c12.26-3.188,24.716,9.023,26.579,27.069
		C210.328,269.616,206.355,280.551,195.616,283.003z"/>
	<path d="M113.77,263.437l19.861-0.589c0,5.541,0,11.671,0,17.213c0,2.452,0.049,2.844-3.972,4.119
		c-5.689,1.471-12.064,1.765-17.899,1.275c-19.812-1.667-34.965-17.311-38.545-36.877c-3.384-18.537,5.345-36.093,20.106-43.301
		c7.209-3.531,15.889-5.198,25.255-2.207c5.885,1.863,11.23,5.296,15.889,9.955l-3.237,5.885l6.13-1.667l9.415-9.612
		c-15.987-13.24-43.35-14.957-61.544-5.787c-15.79,7.993-27.266,23.833-27.854,41.536c-0.588,18.635,10.249,33.395,21.234,40.8
		c18.144,12.26,49.627,9.514,68.556-0.049v-1.765v-19.518l4.413-5.149H123.97L113.77,263.437z"/>
</g>
</svg>
