<?xml version="1.0" encoding="utf-8"?>
<!-- Generator: Adobe Illustrator 17.0.1, SVG Export Plug-In . SVG Version: 6.00 Build 0)  -->
<!DOCTYPE svg PUBLIC "-//W3C//DTD SVG 1.1//EN" "http://www.w3.org/Graphics/SVG/1.1/DTD/svg11.dtd">
<svg version="1.1" id="Layer_1" xmlns="http://www.w3.org/2000/svg" xmlns:xlink="http://www.w3.org/1999/xlink" x="0px" y="0px"
	 width="500px" height="500px" viewBox="0 0 500 500" enable-background="new 0 0 500 500" xml:space="preserve">
<g opacity="0.2">
	<path d="M179.433,177.913v142.213h142.213V177.913H179.433z M285.357,229.649h-2.746c-1.03,0-2.207,1.324-2.207,2.256v34.18
		c0,0.932,1.177,2.354,2.207,2.354h2.746v7.944H260.69v-7.944h4.953v-35.896h-0.245l-12.162,43.841h-9.415l-12.015-43.841h-0.245
		v35.896h5.198v7.944h-20.989v-7.944h2.648c1.079,0,2.256-1.422,2.256-2.354v-34.18c0-0.932-1.177-2.256-2.256-2.256h-2.648v-8.239
		h26.089l8.582,31.924h0.245l8.631-31.924h26.04L285.357,229.649L285.357,229.649z"/>
</g>
</svg>
