<?xml version="1.0" encoding="utf-8"?>
<!-- Generator: Adobe Illustrator 16.0.0, SVG Export Plug-In . SVG Version: 6.00 Build 0)  -->
<!DOCTYPE svg PUBLIC "-//W3C//DTD SVG 1.1//EN" "http://www.w3.org/Graphics/SVG/1.1/DTD/svg11.dtd">
<svg version="1.1" id="Layer_1" xmlns="http://www.w3.org/2000/svg" xmlns:xlink="http://www.w3.org/1999/xlink" x="0px" y="0px"
	 width="251.976px" height="150px" viewBox="0 0 251.976 150" enable-background="new 0 0 251.976 150" xml:space="preserve">
<path fill="#E3D9D0" d="M165.349,80.048c0.402,0.08,0.789,0.144,1.195,0.227l-0.686-0.487L165.349,80.048z M208.675,93.705
	c0.008-0.276,0.006-0.423,0.02-0.416c-0.039-0.01-0.063,0.135-0.09,0.391C208.628,93.688,208.651,93.695,208.675,93.705z
	 M164.606,74.369l-0.912,0.127l-0.625,1.3l0.904,0.982l1.271,0.737l-0.467-1.625L164.606,74.369z M114.732,1.074l-0.089,0.033
	c0.211-0.029,0.418-0.064,0.629-0.09L114.732,1.074z M163.399,72.627l-0.639-0.3l0.561,1.097L163.399,72.627z M99.095,19.609
	l-2.268,0.87l1.741,0.354L99.095,19.609z M181.503,75.938l0.6-0.878l-1.201-0.256L181.503,75.938z M147.36,8.936l1.238,1.04
	l1.738-0.033l0.006-0.874l-1.557-0.454L147.36,8.936z M205.903,63.724c-0.002-0.784-0.045-1.493-0.096-2.164l0.139,0.321
	l0.066-0.283l0.648,1.139l0.277,1.237l-0.363-1.646l-0.473-1.652l-0.111-0.715c-0.229-0.754-0.463-1.505-0.709-2.252l-0.146-0.34
	l-0.428-1.347c-0.057-0.156-0.109-0.316-0.17-0.477l-0.582-1.418l-0.785-1.55l-0.574-1.625l-0.176-0.57
	c0.543,1.165,0.822,1.84,0.879,1.808c-0.043,0.038-0.865-2.434-2.949-6.27c-0.459-0.902-0.926-1.805-1.42-2.688l-0.418-0.489
	c-0.26-0.418-0.566-0.867-0.852-1.301l-0.4-0.981l-0.859-0.891c-0.148-0.203-0.291-0.409-0.443-0.614l-0.535-1.313l-0.965-1.377
	l-0.967-1.373l-0.59-0.971c-1.898-2.538-3.936-4.963-6.102-7.265l-0.307-0.25c-0.633-0.645-1.023-0.959-1.004-0.966
	c-0.027,0.021,0.053,0.125,0.18,0.274l-0.953-0.87l-0.682-0.761c0.609,0.479,0.938,0.759,0.932,0.716
	c0.043,0.023-0.463-0.473-1.451-1.291l-1.129-1.105l-1.314-1.053l-0.996-1.101c-2.447-2.086-5.018-4.028-7.697-5.825
	c0.014,0.004,0.055,0.021,0.055,0.014c0.012,0.005-0.072-0.045-0.205-0.118c-2.783-1.859-5.68-3.558-8.686-5.074l-0.354-0.128
	l-0.418-0.255c-0.625-0.309-1.254-0.609-1.891-0.902l-0.732-0.237c0.201,0.043,0.322,0.062,0.322,0.038
	c0.014,0.005-0.229-0.083-0.654-0.213l-0.779-0.413c-1.346-0.584-2.711-1.127-4.094-1.637c-0.904-0.373-1.41-0.529-1.406-0.526
	c-0.004,0.012,0.045,0.042,0.123,0.083c-1.191-0.421-2.389-0.815-3.6-1.181c0.012-0.004,0.063-0.004,0.063-0.01
	c0.004-0.009-0.09-0.019-0.188-0.028c-2.727-0.818-5.512-1.498-8.346-2.039c0.008-0.007,0.051-0.016,0.049-0.021
	c0.002-0.008-0.082,0-0.145,0.005c-1.305-0.249-2.617-0.466-3.939-0.653c-3.781-0.77-7.9-1.195-12.212-1.122
	c-3.243,0.03-6.364,0.366-9.319,0.902c-0.251,0.031-0.499,0.074-0.75,0.107l0.346-0.038c-0.473,0.09-0.943,0.182-1.406,0.283
	l0.432-0.155c-1.36,0.182-2.723,0.352-4.062,0.6c-0.038,0-0.065-0.002-0.065,0.002c0,0.002,0.021,0.007,0.021,0.007
	c-1.954,0.364-3.89,0.782-5.793,1.276l1.056-0.118l1.807-0.251l1.783-0.377l1.805-0.258l0.041-0.007
	c-1.799,0.51-3.48,1.11-5.051,1.781c-1.785-0.099-3.151-0.042-3.845,0.014c0.985-0.352,1.521-0.52,1.507-0.562
	c0-0.009-2.053,0.46-5.562,1.866l0.112-0.087l-1.514,0.534l-1.559,0.606l-1.518,0.694l-0.949,0.251
	c-0.387,0.166-0.775,0.331-1.16,0.505l-0.254,0.177c-0.309,0.102-0.516,0.175-0.502,0.17c0,0.025,0.129,0.002,0.317-0.04
	l-0.489,0.34l-1.571,0.601l-0.593,0.222c-1.055,0.524-2.095,1.067-3.125,1.639l-1.227,0.994l1.428-0.595l-1.654,0.763l-0.807,0.635
	c-2.055,0.881-3.359,1.595-3.667,1.777c0.153-0.13,0.245-0.215,0.233-0.229c-0.012-0.025-2.057,1.29-5.182,4.347
	c-0.285,0.302-0.584,0.647-0.885,1.013c-3.521,2.174-5.448,3.872-5.367,3.849c-0.02,0.08,1.762-1.389,4.965-3.345
	c-0.689,0.898-1.351,2.003-1.963,3.198l-0.94,0.563l-1.292,1.303l-1.354,1.219l-1.198,1.352l-1.227,1.296l-0.04,0.05
	c-1.539,1.29-2.951,2.594-4.223,3.889c0.014-0.029,0.027-0.061,0.041-0.087c2.169-4.491,4.383-6.348,4.222-6.457
	c0.065,0.024-2.247,1.781-4.556,6.293c-0.192,0.338-0.371,0.711-0.547,1.102c-0.857,0.912-1.666,1.814-2.376,2.693
	c-0.267,0.321-0.503,0.629-0.751,0.941l-0.513,0.454l-0.331,0.63c-0.982,1.3-1.825,2.509-2.528,3.588
	c0.214-0.515,0.341-0.805,0.284-0.822c0.029,0-0.309,0.527-0.756,1.549c-1.727,2.75-2.476,4.479-2.507,4.449
	c0.077,0.054,0.749-1.34,2.161-3.586c-0.463,1.212-0.963,2.873-1.317,5.044l-0.201,0.553l-0.77,1.611l-0.929,1.545l-0.701,1.639
	l-0.449,1.757l-0.986,1.531l-0.287,1.88l-0.1,0.331c-0.01,0.024-0.019,0.048-0.027,0.071c-0.436,1.105-0.822,2.164-1.178,3.18
	c-0.004-2.792,0.459-4.325,0.298-4.333c0.053-0.019-0.675,1.869-0.647,5.368c-2.447,7.321-2.9,11.991-2.941,11.963
	c0.147,0.045,0.664-4.267,2.955-11.094c0.03,0.64,0.076,1.318,0.164,2.05c0.092,0.945,0.316,1.985,0.598,3.057l-0.236,1.599
	l-0.505,1.689l-0.439,1.71l-0.185,1.765l0.15,0.964c-0.566,2.252-1.018,4.477-1.326,6.656c-1.359-4.098-1.156-6.598-1.328-6.56
	c0.057-0.038-0.312,2.755,1.225,7.358c-0.364,2.826-0.493,5.55-0.445,8.162c0.123-0.043,0.245-0.09,0.369-0.133
	c-0.034-2.295,0.085-4.686,0.377-7.152c0.643,1.807,1.672,3.822,3.043,5.918l0.482-0.172c-1.498-2.203-2.621-4.324-3.301-6.197
	c-0.045-0.121-0.076-0.225-0.121-0.343c0.279-2.112,0.709-4.276,1.23-6.466l0.361,1.344l0.506,1.645l0.129,1.744l0.623,1.577
	l0.811,0.444l0.369,1.645l0.337,1.307c-0.185,1.061-0.341,2.1-0.481,3.135l0.527-0.189c0.088-0.59,0.162-1.172,0.261-1.771
	l0.2,0.751l0.383,0.718l2.157-0.771l-0.09-0.113l0.524-1.574l1.15-1.289l0.932-1.468l-0.979-1.505l-1.408-1.184l-1.658,0.453
	c0.305-1.291,0.637-2.594,1.012-3.912c1.509,2.16,3.346,4.318,5.585,6.371l0.14,0.256c-0.193,0.768-0.346,1.523-0.516,2.285
	l0.785-0.279c0.085-0.369,0.141-0.728,0.23-1.096l0.563,0.813l1.771-0.636c-0.34-0.276-0.709-0.541-1.038-0.819l-0.534-1.673
	l-0.138-0.021c0.272-0.995,0.591-1.996,0.897-2.996c0.014,0.002,0.027,0.007,0.041,0.012c0.521,0.17,0.493,0.35,0.889-0.113
	c0.531-0.629,0.584-1.41,0.881-2.137c0.279-0.677,0.625-1.316,0.871-2.025l0.601-1.645l1.201-0.853l1.624,0.13l0.375-0.104
	c1.413,1.083,2.892,2.13,4.479,3.118c-0.756,2.154-1.438,4.309-2.068,6.454c0.33-0.104,0.646-0.193,0.973-0.295
	c0.572-1.896,1.162-3.792,1.823-5.698c2,1.207,4.167,2.313,6.403,3.368c0.43-0.11,0.861-0.219,1.289-0.325
	c-2.617-1.182-5.131-2.432-7.428-3.811c0.525-1.477,1.072-2.955,1.652-4.432c0.614-1.526,1.258-3.019,1.93-4.489l1.826,0.316
	l0.281-1.356l1.803-0.443l1.808-0.53c0.514,0.253,1.066,0.48,1.597,0.723l-0.104,0.402l0.751-0.108
	c0.667,0.297,1.305,0.611,1.989,0.893c-1.429,3.624-2.749,7.384-3.907,11.284c-0.108,0.371-0.207,0.742-0.312,1.113
	c0.359-0.082,0.718-0.17,1.067-0.248c0.057-0.195,0.109-0.392,0.165-0.588c1.153-3.877,2.462-7.616,3.875-11.222
	c2.925,1.163,6.01,2.183,9.222,3.067c-0.656,2.216-1.277,4.479-1.86,6.778c0.347-0.041,0.675-0.06,1.021-0.093
	c0.562-2.183,1.154-4.328,1.777-6.43c3.429,0.907,6.981,1.667,10.648,2.253c-0.236,1.337-0.448,2.71-0.666,4.073
	c0.363,0.034,0.709,0.095,1.067,0.14c0.216-1.354,0.426-2.72,0.657-4.049c3.681,0.555,7.455,0.93,11.277,1.155
	c-0.146,1.965-0.285,3.959-0.42,5.972c0.4,0.185,0.779,0.374,1.156,0.567c0.143-2.186,0.295-4.345,0.448-6.476
	c2.263,0.111,4.536,0.188,6.822,0.18c1.458-0.007,2.901-0.05,4.343-0.102c0.092,2.015,0.182,4.062,0.266,6.126
	c0.373-0.187,0.77-0.366,1.172-0.546c-0.082-1.893-0.164-3.772-0.254-5.625c3.84-0.18,7.611-0.543,11.295-1.056
	c0.127,0.799,0.232,1.625,0.352,2.433l-0.107,0.401l0.012,0.875c1.914-0.234,3.926-0.396,6.084-0.396
	c1.754,0,3.611,0.107,5.521,0.267l-0.004-0.204l1.119-1.046c0.111,0.454,0.207,0.925,0.314,1.38c0.332,0.033,0.648,0.053,0.984,0.09
	c-0.232-0.979-0.445-1.973-0.689-2.935l0.113-0.364l0.193-1.72l1.41-0.683l1.324-0.721l1.26-0.817l1.229-1.002l1.592,1.163
	l1.859,0.513l0.734,0.246c0.904,2.572,1.775,5.186,2.547,7.886c0.051,0.168,0.09,0.335,0.135,0.503
	c0.355,0.081,0.703,0.161,1.063,0.245c-0.094-0.34-0.18-0.675-0.275-1.016c-0.215-0.756-0.461-1.479-0.688-2.221l0.654-0.021
	l1.178,0.52l0.248-2.005l-1.137-0.317l-0.838,1.066l-0.375-0.109c-0.439-1.403-0.893-2.792-1.365-4.16l1.418,0.276l1.445,0.163
	l1.135,1.749l0.459,0.955l0.498-1.604l-0.383-1.765l0.756-0.01l-0.697-1.058l-1.5-0.13l-1.609-0.789l-2.033-0.014l-0.521-0.673
	c-0.105-0.283-0.201-0.577-0.307-0.86c0.654-0.258,1.273-0.548,1.91-0.822l0.762,0.303l1.574,0.169l1.541,0.341l1.5,0.793l0.4,1.954
	l2.016,0.56l1.002,1.606l1.211,1.41l0.852-0.042c0.357,0.98,0.725,1.963,1.059,2.941c-2.191,1.264-4.568,2.414-7.033,3.508
	c0.42,0.106,0.859,0.232,1.285,0.345c2.088-0.971,4.117-1.981,6.004-3.077c0.072,0.217,0.127,0.434,0.201,0.651l-1.158,0.231
	l-0.979,1.72l0.313,1.37l-0.049,0.31c3.313,0.968,6.756,2.058,10.391,3.314l11.674,4.177l-0.822-0.926l-1.279-0.865l-0.906-1.195
	l-0.508-1.455l-0.279-1.555l-0.504-0.553c0.045-0.047,0.098-0.09,0.143-0.137c0.154-0.154,0.279-0.314,0.428-0.469l1.23,0.928
	l1.246,1.119l1.342,1.035l0.723,1.89l0.387,1.983l-0.906,0.303l2.053,0.734l0.33-0.791l0.324-1.658l0.578-1.583l0.637-1.562
	l0.262-1.93l0.383-1.895l0.232-1.934l0.418-0.828c0.414,1.928,0.76,3.82,1.01,5.644c-0.389,1.077-0.906,2.221-1.539,3.401
	l-0.676,0.779l-0.559,1.341c-0.256,0.401-0.553,0.81-0.836,1.216l0.605,0.217c0.67,0.246,1.322,0.482,1.984,0.724l0.078-1.115
	l-0.033-1.802l-0.055-1.359c0.439-0.864,0.838-1.715,1.146-2.527c0.328,2.613,0.498,5.099,0.525,7.408
	c0.113,0.043,0.23,0.086,0.346,0.125c-0.01-2.589-0.199-5.398-0.592-8.355c0.09-0.262,0.201-0.538,0.275-0.793
	c1.041-3.436,1.131-5.889,1.098-7.102c0.115,0.658,0.18,1.016,0.223,1.006C209.198,78.333,208.825,72.583,205.903,63.724z
	 M46.001,63.53c0.117-0.335,0.273-0.718,0.402-1.065l-0.063,0.281l-0.086,1.885l-0.061,1.241
	C46.094,65.033,46.028,64.244,46.001,63.53z M47.187,66.101l-0.576,1.68l-0.04,0.39c-0.126-0.558-0.233-1.105-0.298-1.62
	c-0.012-0.085-0.017-0.157-0.025-0.239l0.72-1.592l0.116-1.958l0.314-1.854l0.027,1.684l0.031,1.768L47.187,66.101z M53.442,42.701
	c0.624-0.957,1.375-2.043,2.25-3.215l-0.627,1.479L54.345,42.6l-0.74,1.625l-0.881,1.563l-0.455,1.063
	C52.63,45.028,53.083,43.653,53.442,42.701z M47.907,57.671l0.145-0.9l0.949-1.5v0.016C48.604,56.098,48.245,56.892,47.907,57.671z
	 M49.606,82.927l-0.513-1.029l-0.897-1.424l0.427-1.428l0.373-1.408l0.134-1.28c0.463,0.837,0.956,1.677,1.523,2.523
	C50.263,80.247,49.922,81.593,49.606,82.927z M50.9,77.984c-0.558-0.838-1.044-1.664-1.495-2.488l0.426-0.945l0.479-1.535
	l0.638-1.472l0.513-1.502l1.106-0.539l0.912,1.068C52.498,73.06,51.628,75.541,50.9,77.984z M58.434,78.511
	c-0.079,0.939-0.13,1.912-0.648,2.731c0.112,0.073,0.239,0.123,0.368,0.179c-0.317,1.041-0.656,2.09-0.936,3.125l-0.26-0.043
	l-0.156,0.305c-2.191-2.025-4.014-4.137-5.484-6.248c0.678-2.301,1.479-4.63,2.385-6.975l0.102,0.487l1.082,0.9l1.146-0.21
	l1.717,1.722l0.836,1.557C58.952,76.731,58.497,77.794,58.434,78.511z M59.815,34.704l-0.43,0.27
	c0.189-0.208,0.354-0.409,0.547-0.619C59.889,34.466,59.853,34.591,59.815,34.704z M162.263,16.354l-0.365,0.638l1.379,0.359
	l0.963,0.779l-1.545-0.166l-1.479-0.217l1.127,1.034l0.402,0.27c-1.668-0.699-3.32-1.351-4.941-1.935
	c0.061-1.453-0.246-2.271-0.195-2.261c-0.084-0.118,0.133,0.777,0.004,2.19c-4.156-1.486-8.096-2.608-11.668-3.449
	c0.02-0.621-0.07-0.999-0.094-0.928c-0.021-0.052,0.023,0.314-0.035,0.898c-0.912-0.213-1.832-0.435-2.688-0.614
	c-7.531-1.559-13.055-1.975-15.512-2.069c2.701-0.057,9.373-0.156,18.063,1.181c0.119,0.392,0.158,0.633,0.172,0.604
	c0.018,0.031,0.008-0.204-0.082-0.59c3.621,0.562,7.584,1.37,11.77,2.542c0.043,0.16,0.066,0.257,0.07,0.236
	c0.006,0.021-0.008-0.07-0.039-0.227c1.48,0.416,2.992,0.891,4.52,1.403L162.263,16.354z M162.476,24.966l1.592-0.798
	c0.754,0.425,1.508,0.845,2.27,1.299l-0.02,0.77l-0.406,1.879l0.236,2.02l-0.08,0.009c-3.619-2.709-7.225-5.079-10.674-7.106
	c0.68-0.855,1.174-1.711,1.551-2.542c0.566,0.265,1.143,0.555,1.715,0.836l0.086,0.217l0.908,1.446l1.406,0.983L162.476,24.966z
	 M161.565,22.808c0.736,0.392,1.479,0.789,2.229,1.205l-2.012-0.948L161.565,22.808z M153.495,37.596l-0.705,1.086l0.068,1.715
	l-0.414,0.775c-0.041,0.014-0.08,0.033-0.121,0.047c-2.605-4.109-5.232-7.815-7.754-11.089c0.123-0.047,0.238-0.099,0.361-0.144
	l0.678,0.371l0.256-0.745c0.859-0.352,1.697-0.715,2.48-1.115c1.852,1.819,3.756,3.82,5.674,5.96l-0.766,1.29L153.495,37.596z
	 M147.282,57.615l-0.438-0.739l-1.039-1.15l-0.846-1.224l-1.834,0.43l-0.299,2.043l2.105,0.447l0.227,0.623
	c-1.299,0.239-2.611,0.463-3.945,0.652c-1-4.659-2.064-9.066-3.146-13.191c2.307-0.328,4.564-0.742,6.756-1.271
	c1.76,3.976,3.498,8.245,5.156,12.799C149.097,57.246,148.183,57.426,147.282,57.615z M150.249,57.787
	c0.475,1.325,0.926,2.714,1.383,4.085l-0.871-0.728l-1.139-0.837l-1.172-0.843l-0.73-1.125
	C148.567,58.158,149.419,57.99,150.249,57.787z M91.477,48.81l-1.366,0.669l-1.428-1.521l0.84-1.42l0.525-1.497l0.305-1.555
	l-0.309-0.403c0.129-0.166,0.256-0.316,0.385-0.478l0.168,0.604l0.432,1.456l1.594,0.373l1.482-0.722l1.477-0.799l-0.369-1.479
	l0.387-1.313l1.014,1.006l1.125,0.822l0.206-0.184c-1.765,2.707-3.499,5.603-5.198,8.637l-0.158-0.667l0.484-1.781L91.477,48.81z
	 M93.344,25.33c0.723-0.449,1.435-0.878,2.149-1.303l-0.163,0.344L94.429,25.6l1.059,1.635l0.678,0.505
	c-0.51,0.388-1.022,0.792-1.531,1.195l0.646-1.214l-0.674-0.487l-1.715,0.671l-1.735,0.728l-0.728,1.672l0.68,1.517
	c-0.104,0.087-0.207,0.177-0.314,0.267l-1.869,0.102l-0.197-1.696l0.705-1.871l0.736-1.243c0.32-0.214,0.646-0.444,0.971-0.654
	l1.748-0.172l1.157-1.112L93.344,25.33z M88.769,34.73l0.301,0.17l1.545-0.669l1.082-1.247l1.707-0.119l-0.014,1.609l0.74,1.382
	l0.135,0.961c-0.301,0.337-0.601,0.663-0.898,1.009l-0.26,0.127c-0.156-0.083-0.315-0.161-0.466-0.251
	c-1.429-0.852-2.78-1.804-4.024-2.837C88.669,34.82,88.718,34.778,88.769,34.73z M89.945,19.814l0.667-0.933
	c0.634-0.255,1.266-0.501,1.895-0.742l-0.533,0.473l0.189,1.492L92.536,21l1.395-0.855l0.799-0.926l-1.16-0.026l0.525-1.645
	c0.166-0.056,0.332-0.125,0.495-0.184c0.054,0.6,0.214,1.486,0.601,2.523c-1.568,0.704-3.18,1.49-4.805,2.32l0.432-1.102
	L89.945,19.814z M94.709,17.322c0.054-0.019,0.105-0.035,0.159-0.052l0.036,0.024l0.074-0.062c4.076-1.434,7.956-2.544,11.476-3.375
	c0.028,0.361,0.123,0.905,0.344,1.538c-1.01,0.331-2.04,0.676-3.109,1.058c-2.586,0.926-5.375,2.032-8.281,3.333
	C94.992,18.772,94.799,17.903,94.709,17.322z M157.147,19.181c-0.09,0.276-0.168,0.55-0.293,0.838
	c-3.383-1.555-6.621-2.844-9.58-3.9c-0.602-0.21-1.154-0.385-1.734-0.581c0.225-0.596,0.328-1.127,0.377-1.581
	c3.566,0.87,7.498,2.021,11.643,3.525c-0.002,0.019-0.01,0.042-0.012,0.061l-0.564-0.076l-0.277,1.354L157.147,19.181z
	 M145.325,15.465c-9.703-3.248-16.57-4.309-18.531-4.538c1.824,0.13,7.77,0.526,16.266,2.354c0.863,0.19,1.793,0.421,2.709,0.643
	C145.698,14.364,145.573,14.887,145.325,15.465z M145.78,27.348l1.135-0.21l-0.008-0.016c0.354,0.335,0.699,0.654,1.055,1.001
	c-0.602,0.297-1.229,0.576-1.877,0.843l0.178-0.519L145.78,27.348z M146.247,25.671l-0.137-0.305l-0.15,0.036
	c-0.037-0.033-0.078-0.074-0.115-0.109c-1.908-1.729-3.709-3.248-5.424-4.649c0.682-0.373,1.307-0.774,1.877-1.2
	c1.455,0.907,2.949,1.871,4.535,2.949c1.564,1.063,3.189,2.225,4.855,3.481c-0.955,0.69-1.984,1.349-3.137,1.949
	C147.774,27.077,147.007,26.363,146.247,25.671z M145.019,27.116l-2.277-0.245l-0.393,0.47c-1.615-1.991-3.178-3.825-4.641-5.452
	c0.789-0.298,1.541-0.617,2.24-0.974c1.68,1.401,3.447,2.932,5.314,4.657l-1.006,0.245L145.019,27.116z M144.313,29.649
	c-0.031,0.012-0.061,0.024-0.094,0.038c-0.033-0.047-0.068-0.09-0.104-0.135l0.033,0.007L144.313,29.649z M106.858,39.892
	l0.045,0.967c-0.076,0.144-0.146,0.291-0.22,0.437l-0.892-0.167l-1.026,1.623l-0.008,0.012c-1.72-0.489-3.413-1.025-5.036-1.656
	c2.264-3.423,4.525-6.54,6.732-9.374l0.791,1.011l-0.137,1.531l-0.029,1.519l-0.29,1.47l0.981,0.876l-1.832,0.872L106.858,39.892z
	 M97.571,34.232c2.021-2.174,4.025-4.198,5.969-6.034c0.094,0.049,0.207,0.09,0.301,0.139l-0.152,0.955l0.884,1.744l1.196,0.396
	c-2.146,2.712-4.347,5.696-6.543,8.956l-0.126-0.86l-1.046-1.254l0.264-1.902l0.063-1.871L97.571,34.232z M96.997,23.133
	c0.008-0.004,0.018-0.012,0.026-0.016c0.444,0.564,0.993,1.132,1.603,1.694l-0.777,0.179l-0.088,0.883l-0.697-0.418l0.113-1.401
	L96.997,23.133z M97.325,22.944c2.856-1.632,5.609-3.061,8.165-4.28c0.865-0.411,1.683-0.775,2.509-1.148
	c0.359,0.46,0.818,0.921,1.361,1.375c-1.352,0.789-2.751,1.63-4.213,2.556l-0.002-0.005l-1.771-0.552l-1.877,0.099l-1.707,0.804
	l-0.063,1.75l1.474,0.121l1.105-0.714h-0.002l0.148-0.094l-0.146,0.094l0.412,0.087c-0.359,0.241-0.723,0.489-1.087,0.739
	l-1.458,0.68l-1.08,0.248C98.415,24.121,97.813,23.533,97.325,22.944z M139.612,20.634c-0.688,0.331-1.43,0.631-2.205,0.907
	c-5.293-5.85-9.32-9.268-10.688-10.314C128.235,12.195,133.089,15.224,139.612,20.634z M126.87,11.193
	c1.842,0.817,7.463,3.298,15.1,8.046c-0.57,0.404-1.189,0.785-1.875,1.139C133.524,15.059,128.581,12.105,126.87,11.193z
	 M136.831,21.735c-0.82,0.274-1.674,0.52-2.566,0.728c-3.789-6.175-6.727-10.071-7.706-11.221
	C127.716,12.318,131.622,15.808,136.831,21.735z M133.72,22.599c-0.816,0.175-1.664,0.317-2.529,0.435
	c-2.211-6.218-3.967-10.292-4.666-11.646C127.427,12.699,130.161,16.58,133.72,22.599z M130.587,23.1
	c-0.893,0.104-1.805,0.177-2.734,0.218c-0.736-6.828-1.328-11.179-1.568-12.195C126.663,12.129,128.345,16.372,130.587,23.1z
	 M109.735,19.203c0.084,0.063,0.144,0.132,0.232,0.194c0.503,0.382,1.069,0.741,1.67,1.084c-1.087,0.852-2.223,1.774-3.385,2.738
	l-0.092-0.024l-1.424-1.375l-0.926,0.574l-0.373-0.532C106.935,20.899,108.358,20.025,109.735,19.203z M109.663,18.716
	c-0.559-0.435-1.025-0.874-1.402-1.318c8.844-3.966,15.236-5.745,17.262-6.308C123.595,11.75,117.702,14.055,109.663,18.716z
	 M110.173,19.122c-0.047-0.033-0.08-0.066-0.128-0.099c7.891-4.68,13.663-7.073,15.519-7.848c-1.722,0.872-6.806,3.766-13.601,9.05
	C111.319,19.878,110.706,19.514,110.173,19.122z M125.626,11.265c-1.479,1.065-5.646,4.399-11.116,10.111
	c-0.728-0.279-1.407-0.576-2.05-0.899C119.078,15.206,124.005,12.248,125.626,11.265z M125.892,11.197
	c-0.986,1.079-4.129,4.923-8.263,11.152c-0.892-0.222-1.754-0.467-2.562-0.754C120.604,15.642,124.735,12.212,125.892,11.197z
	 M125.792,11.501c-0.822,1.451-2.749,5.434-5.162,11.443c-0.844-0.13-1.66-0.286-2.453-0.468
	C121.885,16.679,124.751,12.904,125.792,11.501z M126.118,11.128c-0.24,0.878-1.023,5.239-2.046,12.19
	c-0.972-0.054-1.918-0.156-2.844-0.281C123.771,16.342,125.679,12.134,126.118,11.128z M127.202,23.346
	c-0.225,0.005-0.445,0.023-0.67,0.028c-0.609,0.005-1.207-0.019-1.807-0.042c0.824-6.69,1.398-10.985,1.469-12.085
	C126.255,12.477,126.649,16.762,127.202,23.346z M126.194,10.861c0.01-0.009,0.02-0.033,0.02-0.092c0,0.057,0.004,0.092,0.009,0.097
	c-0.005,0.002-0.019,0.002-0.022,0.002C126.199,10.868,126.196,10.863,126.194,10.861z M124.669,23.809
	c0.619,0.023,1.236,0.05,1.865,0.042c0.24-0.002,0.471-0.024,0.709-0.028c0.123,1.498,0.26,3.137,0.398,4.857l-1.162,0.104
	l-1.061-1.04l-0.908-0.888l-0.214,0.019C124.423,25.822,124.551,24.768,124.669,23.809z M127.911,32.087
	c0.014,0.175,0.027,0.328,0.041,0.505c-0.17,0.005-0.34,0.014-0.512,0.024l-0.053-0.038L127.911,32.087z M126.255,10.847
	c-0.01,0.007-0.016,0.012-0.02,0.019h-0.005c0.001,0,0.001-0.009,0.006-0.009c0.009,0,0.036-0.031,0.058-0.059
	C126.28,10.816,126.263,10.837,126.255,10.847z M126.214,10.74c0.014-0.55-0.199-2.73-0.9-5.253
	c-0.205-0.775-0.421-1.498-0.631-2.149c0.385-0.014,0.764-0.042,1.154-0.047c0.713-0.007,1.416,0.014,2.111,0.047
	c-0.262,0.607-0.512,1.29-0.709,2.031C126.49,7.962,126.224,10.188,126.214,10.74z M126.066,10.861
	c-1.079-0.257-8.282-1.581-18.147-1.184c0.332-0.444,0.777-0.898,1.285-1.344c9.199,0.302,15.965,2.293,16.896,2.527H126.066z
	 M125.765,10.858h-0.008c-1.727-0.125-8.998-0.548-18.92,0.86c0.172-0.505,0.453-1.084,0.863-1.701
	C117.047,9.571,124.044,10.622,125.765,10.858z M106.978,15.333c-0.249-0.619-0.373-1.146-0.428-1.498
	c1.043-0.246,2.088-0.492,3.063-0.695c8.347-1.722,14.19-2.09,16.008-2.21C123.644,11.148,116.772,12.139,106.978,15.333z
	 M125.543,11c-2.021,0.438-8.528,2.126-17.559,6.086c-0.392-0.51-0.657-1-0.867-1.458C116.697,12.432,123.478,11.333,125.543,11z
	 M101.758,26.549l1.553-0.182l1.017,0.267c-0.342,0.31-0.674,0.598-1.02,0.917c-0.571-0.312-1.115-0.633-1.64-0.963L101.758,26.549z
	 M103.922,27.836l-0.005,0.022c-0.004-0.005-0.009-0.005-0.012-0.007C103.913,27.847,103.917,27.842,103.922,27.836z
	 M107.027,27.487l-1.837-0.253l-1.074,0.423c0.4-0.372,0.789-0.721,1.184-1.08l0.932-0.296l1.586-0.22l1.332-0.874l1.676-0.444
	l-0.988-1.087l-0.926-0.254c1.105-0.938,2.185-1.833,3.223-2.665c0.646,0.345,1.337,0.667,2.074,0.961
	c-1.545,1.623-3.199,3.458-4.914,5.457l-0.437-0.087L107.027,27.487z M114.765,21.928c0.822,0.307,1.692,0.579,2.6,0.817
	c-0.828,1.252-1.691,2.611-2.586,4.044l-0.49,0.047l-2.034-0.541l-1.603,1.126l-0.606-0.12
	C111.688,25.345,113.282,23.533,114.765,21.928z M117.921,22.878c0.818,0.199,1.658,0.369,2.529,0.509
	c-0.372,0.933-0.768,1.958-1.158,2.983l-0.111-0.014l-1.896,0.678l-0.92-0.39l-0.818,0.076
	C116.364,25.359,117.16,24.074,117.921,22.878z M118.296,45.094l1.719-0.312l1.304-0.279c-0.038,0.326-0.076,0.643-0.113,0.973
	c-1.034-0.059-2.065-0.146-3.09-0.243L118.296,45.094z M121.191,26.606l-1.225-0.151c0.368-1.021,0.741-2.042,1.091-2.972
	c0.961,0.137,1.938,0.25,2.945,0.307c-0.147,0.987-0.299,2.067-0.449,3.152l-0.336,0.028l-1.365,0.033L121.191,26.606z
	 M122.318,44.457l1.065,0.047l1.605-0.473l1.226-1.317l0.501-1.744l0.006-1.698l0.664-1.576l0.594-1.575l-0.105-1.692l0.199-0.271
	c0.271,3.505,0.553,7.318,0.838,11.424c-1.779,0.057-3.568,0.08-5.369,0.028c-0.447-0.014-0.891-0.054-1.338-0.075
	C122.242,45.167,122.28,44.818,122.318,44.457z M128.667,31.378l0.254-0.238l1.451-1.333l0.424-0.085l-0.176-0.907l-2.047-0.22
	l-0.176,0.016c-0.166-1.703-0.334-3.333-0.492-4.816c0.963-0.045,1.908-0.123,2.836-0.237c0.84,2.542,1.756,5.424,2.713,8.616
	c-1.527,0.187-3.082,0.314-4.67,0.38C128.743,32.144,128.708,31.78,128.667,31.378z M131.349,23.488
	c0.898-0.127,1.768-0.289,2.613-0.478c1.438,2.441,3,5.221,4.631,8.32c-1.414,0.312-2.883,0.553-4.381,0.756
	C133.212,28.902,132.247,26.025,131.349,23.488z M134.511,22.866c0.916-0.224,1.791-0.484,2.625-0.779
	c1.498,1.718,3.109,3.659,4.783,5.776l-0.379,0.454l1.092,0.94l0.449,0.09l0.443,0.581c-1.355,0.461-2.768,0.879-4.258,1.229
	C137.601,28.066,135.993,25.298,134.511,22.866z M126.79,11.062c1.881,0.548,8.268,2.372,17.172,6.506
	c-0.344,0.378-0.744,0.755-1.225,1.126c-0.111,0.092-0.25,0.172-0.367,0.262C134.401,14.107,128.571,11.705,126.79,11.062z
	 M126.815,10.991c1.98,0.335,8.781,1.491,18.363,4.77c-0.23,0.477-0.553,0.975-0.969,1.486
	C135.21,13.155,128.741,11.426,126.815,10.991z M126.374,10.858h-0.043c0.971-0.222,7.801-2.122,17.01-2.386
	c0.486,0.454,0.881,0.902,1.195,1.337C134.69,9.328,127.493,10.604,126.374,10.858z M144.776,10.15
	c0.396,0.609,0.643,1.157,0.799,1.592c-9.723-1.429-16.869-1.022-18.764-0.902C128.802,10.575,135.687,9.63,144.776,10.15z
	 M127.247,10.523c2.143-0.756,7.486-2.502,14.146-3.501c0.143,0.088,0.299,0.17,0.434,0.259c0.436,0.28,0.814,0.567,1.158,0.86
	C135.429,8.428,129.532,9.848,127.247,10.523z M127.026,10.479c1.648-0.876,5.654-2.982,10.727-4.539
	c0.35-0.114,0.684-0.196,1.027-0.298c0.777,0.333,1.475,0.704,2.133,1.087C134.231,7.792,128.964,9.654,127.026,10.479z
	 M137.647,5.595c-5.59,1.72-9.809,4.172-11.043,4.999c0.875-0.805,3.256-3.241,6.691-5.381c0.508-0.328,1.014-0.622,1.512-0.891
	c1.225,0.31,2.361,0.686,3.418,1.108C138.03,5.489,137.847,5.529,137.647,5.595z M133.104,4.91c-3.76,2.342-6.193,5.126-6.752,5.814
	c0.381-0.602,1.568-3.142,3.75-5.646c0.449-0.529,0.914-0.98,1.375-1.401c0.973,0.142,1.918,0.319,2.824,0.534
	C133.905,4.428,133.507,4.65,133.104,4.91z M129.835,4.839c-2.051,2.355-3.127,4.741-3.473,5.637
	c0.196-0.808,0.574-2.767,1.221-5.001c0.211-0.782,0.463-1.493,0.719-2.128c0.936,0.052,1.842,0.146,2.73,0.265
	C130.63,3.981,130.226,4.381,129.835,4.839z M128.112,2.982c-0.752-0.041-1.512-0.061-2.279-0.052
	c-0.428,0.002-0.85,0.033-1.269,0.052c-0.397-1.19-0.755-2.079-0.938-2.452l1.335-0.146l1.688,0.09l1.68,0.146l1.178,0.007
	C129.192,1.002,128.647,1.82,128.112,2.982z M124.964,5.581c0.607,2.185,0.938,4.091,1.107,4.895
	c-0.312-0.905-1.327-3.331-3.515-5.571c-0.438-0.477-0.88-0.898-1.319-1.29c1.007-0.135,2.047-0.218,3.104-0.265
	C124.54,4.026,124.753,4.778,124.964,5.581z M122.292,5.151c2.304,2.352,3.393,4.885,3.764,5.537
	c-0.611-0.734-3.08-3.496-6.898-5.754c-0.414-0.253-0.82-0.47-1.227-0.687c0.922-0.222,1.872-0.416,2.857-0.563
	C121.286,4.125,121.79,4.603,122.292,5.151z M118.97,5.246c3.373,1.989,5.758,4.326,6.74,5.24
	c-1.344-0.979-5.488-3.582-11.094-5.221c-0.012-0.004-0.021-0.004-0.032-0.009c0.89-0.336,1.847-0.628,2.845-0.885
	C117.936,4.636,118.451,4.924,118.97,5.246z M125.458,10.461c-1.881-0.865-7.111-2.797-13.839-3.832
	c0.741-0.42,1.561-0.804,2.433-1.155c0.156,0.045,0.308,0.085,0.461,0.135C119.812,7.157,123.86,9.507,125.458,10.461z
	 M125.729,10.686c-1.718-0.59-7.921-2.324-16.139-2.676c0.135-0.108,0.242-0.219,0.387-0.326c0.351-0.262,0.744-0.51,1.141-0.755
	C118.456,7.983,124.116,10.041,125.729,10.686z M109.823,7.48c-0.228,0.168-0.393,0.34-0.592,0.512
	c-2.133-0.081-4.391-0.07-6.746,0.083c-1.238,0.049-2.434,0.156-3.602,0.288c0.371-0.328,0.76-0.652,1.197-0.973
	c0.496-0.378,1.061-0.732,1.621-1.087c2.161-0.085,4.549-0.019,7.072,0.317c0.665,0.071,1.293,0.166,1.938,0.255
	C110.409,7.074,110.097,7.27,109.823,7.48z M102.503,8.435c2.205-0.142,4.33-0.166,6.346-0.108c-0.477,0.455-0.867,0.912-1.171,1.36
	c-3.415,0.147-7.134,0.501-11.036,1.176c0.477-0.685,1.072-1.393,1.805-2.093C99.755,8.614,101.103,8.491,102.503,8.435z
	 M107.47,10.027c-0.377,0.626-0.628,1.207-0.775,1.713c-3.585,0.515-7.506,1.268-11.65,2.364c0.255-0.822,0.667-1.795,1.324-2.832
	C100.29,10.575,104.035,10.2,107.47,10.027z M106.612,12.049c-0.196,0.832-0.152,1.375-0.143,1.313
	c0.029,0.052,0.029-0.5,0.27-1.332c8.442-1.257,14.98-1.205,17.844-1.146c-2.529,0.097-7.856,0.503-15.038,1.925
	c-0.97,0.194-2.009,0.428-3.046,0.665c-0.012-0.088-0.017-0.128-0.029-0.112c-0.006-0.023-0.016,0.029-0.02,0.123
	c-3.26,0.744-6.84,1.739-10.594,3l0.577-0.492l-1.675-0.496l-0.041,0.022c0.047-0.296,0.109-0.626,0.213-1.023
	C99.079,13.379,103.02,12.587,106.612,12.049z M103.802,16.771c1.082-0.392,2.105-0.735,3.125-1.078
	c0.189,0.471,0.441,0.974,0.813,1.5c-0.799,0.354-1.588,0.695-2.429,1.087c-2.597,1.212-5.396,2.641-8.301,4.281
	c-0.646-0.843-1.11-1.665-1.45-2.419C98.45,18.831,101.228,17.714,103.802,16.771z M97.333,28.885l1.209-0.876l-0.418-0.548
	l0.332-0.723c0.084-0.061,0.165-0.123,0.247-0.184l0.14,0.695l1.504-0.118l0.83-0.341c0.563,0.378,1.143,0.747,1.767,1.102
	c-1.681,1.563-3.405,3.264-5.144,5.079l0.067-0.309l0.345-1.614l-0.906-1.358l-0.826-1.424l-0.061,0.023
	c0.075-0.059,0.156-0.123,0.231-0.185l0.341,0.255L97.333,28.885z M99.339,41.702c1.654,0.652,3.383,1.203,5.137,1.708l-0.436,0.997
	l-0.113,1.77l0.197,0.458c-1.436,3.095-2.861,6.307-4.23,9.733c-2.16-0.593-4.235-1.286-6.262-2.03l-0.215-0.616l-0.367-1.446
	C95.097,48.524,97.203,44.971,99.339,41.702z M104.569,47.673l0.262,1.612l0.128,1.625l1.462,1.781l2.016,0.184l1.971-0.393
	l0.653-1.521l0.403-1.509l0.647-1.401l0.017-0.015c-0.939,3.314-1.871,6.75-2.749,10.395c-2.958-0.478-5.83-1.091-8.618-1.824
	C101.999,53.476,103.279,50.53,104.569,47.673z M113.333,47.161l1.684,0.094l1.725-0.971l0.533-0.406
	c1.275,0.132,2.557,0.236,3.85,0.314c-0.472,4.188-0.943,8.653-1.396,13.357c-3.176-0.192-6.305-0.508-9.355-0.971
	C111.32,54.56,112.322,50.776,113.333,47.161z M122.131,46.249c0.463,0.022,0.921,0.064,1.388,0.078
	c1.828,0.052,3.639,0.029,5.439-0.031c0.02,0.286,0.041,0.593,0.063,0.882l-0.879,0.214l-1.479,0.179l0.625,1.781l1.795,0.783
	l0.133,0.016c0.201,3.066,0.404,6.216,0.598,9.53c-2.391,0.078-4.803,0.099-7.23,0.021c-0.584-0.019-1.161-0.066-1.742-0.094
	C121.267,54.905,121.7,50.438,122.131,46.249z M128.841,33.152c1.625-0.07,3.221-0.205,4.785-0.401
	c1.098,3.683,2.236,7.774,3.363,12.197c-2.318,0.297-4.686,0.489-7.08,0.591C129.552,41.064,129.19,36.906,128.841,33.152z
	 M134.392,32.661c1.533-0.215,3.033-0.479,4.475-0.81c1.842,3.526,3.764,7.455,5.672,11.741c-2.156,0.508-4.383,0.907-6.65,1.224
	C136.72,40.403,135.538,36.334,134.392,32.661z M139.548,31.671c1.51-0.369,2.947-0.806,4.322-1.293
	c2.494,3.298,5.094,7.021,7.678,11.15c-1.994,0.721-4.084,1.326-6.219,1.855C143.388,39.108,141.431,35.187,139.548,31.671z
	 M148.919,28.18c1.15-0.624,2.184-1.305,3.139-2.022c2.477,1.875,5.045,3.98,7.635,6.289l-0.049,0.002l-1.721,0.948l-2.236-0.444
	l-1.215,0.966C152.597,31.86,150.733,29.932,148.919,28.18z M147.116,21.972c-1.541-1.03-3.004-1.952-4.424-2.822
	c0.084-0.065,0.184-0.127,0.264-0.193c0.514-0.411,0.928-0.836,1.283-1.256c0.943,0.439,1.889,0.881,2.883,1.375
	c2.406,1.2,4.98,2.584,7.652,4.16c-0.477,0.529-1.02,1.056-1.666,1.574c-0.291,0.25-0.641,0.477-0.957,0.718
	C150.423,24.241,148.733,23.051,147.116,21.972z M147.312,18.692c-0.977-0.475-1.904-0.897-2.832-1.321
	c0.4-0.526,0.713-1.042,0.926-1.532c0.586,0.2,1.143,0.382,1.752,0.6c2.949,1.072,6.174,2.381,9.545,3.948
	c-0.373,0.8-0.898,1.64-1.602,2.48C152.378,21.281,149.757,19.888,147.312,18.692z M157.114,20.138
	c0.104-0.26,0.186-0.508,0.271-0.758l0.73,0.603l0.318,0.791C157.995,20.563,157.548,20.338,157.114,20.138z M157.774,17.575
	c0-0.004,0-0.007,0-0.012c0.014,0.005,0.033,0.012,0.047,0.02L157.774,17.575z M157.716,12.385l1.268,1.207l1.357,1.07l0.955-0.099
	l0.555,1.025c-1.479-0.484-2.941-0.936-4.373-1.332c-0.152-0.575-0.506-1.526-1.176-2.67L157.716,12.385z M157.431,14.243
	c-4.174-1.146-8.141-1.951-11.746-2.484c-0.125-0.433-0.346-0.981-0.709-1.597c3.459,0.205,7.229,0.626,11.174,1.377
	C156.862,12.689,157.251,13.658,157.431,14.243z M153.362,9.538l1.365,1.082l0.711,0.439c-3.766-0.673-7.369-1.065-10.674-1.236
	c-0.285-0.438-0.668-0.897-1.121-1.355c1.924-0.047,3.939-0.031,6.035,0.094c1.094,0.045,2.129,0.16,3.168,0.27L153.362,9.538z
	 M152.335,8.123l0.23,0.319c-0.943-0.097-1.877-0.196-2.867-0.236c-0.107-0.007-0.205-0.004-0.309-0.012l-0.832-0.533l-0.457,0.397
	l0.428,0.108c-1.797-0.076-3.549-0.092-5.211-0.038c-0.393-0.359-0.826-0.713-1.348-1.056c-0.053-0.038-0.117-0.071-0.174-0.109
	c0.453-0.065,0.893-0.139,1.355-0.196c1.887-0.274,3.652-0.359,5.342-0.375l0.328,0.371l1.666,0.921L152.335,8.123z M146.384,4.253
	l1.514,0.728l0.939,0.26c0.434,0.233,0.863,0.47,1.268,0.717l-1.029-0.234l-1.463-0.333l0.578,0.656
	c-1.615,0.02-3.295,0.1-5.086,0.359c-0.609,0.076-1.191,0.17-1.781,0.26c-0.646-0.406-1.348-0.793-2.117-1.148
	c2.674-0.747,5.113-1.141,7.018-1.347L146.384,4.253z M139.97,2.269l1.672,0.251l1.613,0.481l1.611,0.508l0.912,0.447
	c-1.955,0.179-4.406,0.567-7.072,1.337c-1.059-0.456-2.219-0.858-3.457-1.196c1.852-0.949,3.51-1.502,4.682-1.838L139.97,2.269z
	 M136.677,1.607l1.664,0.241l1.154,0.298c-1.262,0.314-2.939,0.854-4.77,1.816c-0.932-0.234-1.906-0.425-2.912-0.583
	c0.811-0.695,1.586-1.226,2.225-1.619l0.422,0.074l1.508,0.205l-1.449-0.456h-0.18c0.359-0.213,0.643-0.371,0.857-0.481
	L136.677,1.607z M133.364,1.036l1.627,0.02c-0.285,0.11-0.656,0.283-1.109,0.528h-0.855l0.643,0.114
	c-0.676,0.382-1.473,0.912-2.289,1.613c-0.953-0.139-1.926-0.248-2.93-0.31c0.494-1.157,0.975-1.991,1.189-2.372h0.379l1.684,0.092
	L133.364,1.036z M125.343,0.249c2.016-0.036,3.963,0.068,5.875,0.236c-0.484-0.031-0.971-0.063-1.461-0.087l0.006-0.007
	c0-0.002-0.01,0.007-0.01,0.007c-1.285-0.059-2.574-0.099-3.877-0.099c-0.791,0-1.576,0.028-2.363,0.052
	c-0.002-0.002-0.007-0.014-0.007-0.014C124.12,0.308,124.72,0.256,125.343,0.249z M123.504,0.336c-0.003,0,0.002,0.012,0.002,0.014
	c-0.18,0.004-0.36,0.004-0.54,0.009C123.142,0.351,123.325,0.344,123.504,0.336z M119.343,0.667l0.568,0.059l1.68-0.023l1.682-0.132
	l0.252-0.026c0.088,0.383,0.368,1.276,0.713,2.452c-1.143,0.058-2.268,0.157-3.354,0.314c-1.574-1.33-2.993-2.112-3.609-2.398
	C117.95,0.809,118.653,0.748,119.343,0.667z M117.118,0.941c0.463,0.324,1.801,1.125,3.341,2.445
	c-1.026,0.163-2.008,0.373-2.96,0.621c-2.137-1.092-4.103-1.703-5.398-2.018C113.706,1.57,115.375,1.215,117.118,0.941z
	 M111.712,2.084c1.177,0.345,3.094,0.971,5.254,2.055c-1.01,0.284-1.963,0.612-2.86,0.979c-2.776-0.817-5.372-1.186-7.458-1.33
	C108.226,3.144,109.913,2.571,111.712,2.084z M113.584,5.338c-0.868,0.38-1.694,0.784-2.423,1.23
	c-0.771-0.111-1.542-0.222-2.344-0.307c-2.344-0.31-4.563-0.378-6.597-0.307c1.163-0.699,2.479-1.334,3.866-1.93
	C108.136,4.185,110.754,4.542,113.584,5.338z M102.067,3.875c0.521,0.017,1.805-0.004,3.579,0.115
	c-1.36,0.608-2.627,1.262-3.765,1.973c-0.941,0.037-1.818,0.116-2.662,0.205l1-1.018l-1.688,0.11
	C99.987,4.645,101.187,4.191,102.067,3.875z M94.531,8.921l1.499-0.765l1.369-1.021l1.381-0.614
	c0.818-0.085,1.664-0.159,2.572-0.199c-0.467,0.308-0.953,0.61-1.373,0.931c-0.504,0.373-0.943,0.756-1.358,1.139
	c-1.769,0.208-3.44,0.496-5.021,0.827L94.531,8.921z M90.281,11.959l1.591-0.935l0.813-1.266c1.717-0.383,3.549-0.721,5.506-0.959
	c-0.704,0.704-1.266,1.408-1.721,2.093c-0.191,0.036-0.377,0.059-0.565,0.095c-2.159,0.366-4.177,0.867-6.124,1.417L90.281,11.959z
	 M88.935,13.152l0.223-0.196c2.154-0.633,4.391-1.209,6.811-1.618c0.077-0.015,0.153-0.026,0.234-0.041
	c-0.634,1.04-1.02,2.01-1.253,2.83c-2.292,0.612-4.653,1.341-7.052,2.176l0.012-0.011l-0.215-1.829L88.935,13.152z M86.144,19.325
	l0.428-1.748l0.701-0.673c2.577-0.923,5.111-1.718,7.572-2.383c-0.094,0.401-0.149,0.734-0.188,1.029l-1.283,0.69l1.056,0.727
	c-0.99,0.348-1.992,0.714-3.004,1.102l0.456-0.397l-0.489-0.761l1.264-1.538l-1.592,0.745l-1.607,0.231l-1.355,0.945l0.508,1.25
	l1.67-0.146L88.63,19.16l-0.087,0.066c-0.95,0.402-1.909,0.827-2.868,1.266L86.144,19.325z M85.425,21.125
	c0.051-0.029,0.104-0.047,0.16-0.074l-0.166,0.079L85.425,21.125z M85.04,25.628l1.549,0.512l1.068-1.197l1.299-1.078l1.079-1.02
	c1.793-0.936,3.567-1.81,5.295-2.599c0.313,0.762,0.759,1.594,1.372,2.447l-0.666,0.175l-0.17,0.361
	c-1.088,0.626-2.184,1.288-3.293,1.98l-0.281-0.045l-0.375,0.458c-1.537,0.968-3.082,1.989-4.641,3.085l0.661-0.82l-1.335-0.104
	l-1.293-0.13l-0.582-1.701l-0.111-0.07L85.04,25.628z M88.184,34.392c-0.022,0.021-0.045,0.038-0.066,0.06
	c-0.087-0.076-0.161-0.159-0.246-0.234L88.184,34.392z M87.524,29.252l-0.161,0.061c0.116-0.083,0.229-0.17,0.349-0.251
	L87.524,29.252z M87.641,34.884c-0.286,0.26-0.567,0.563-0.851,0.832l0.002-0.119l0.504-1.051
	C87.413,34.654,87.519,34.775,87.641,34.884z M84.25,24.191l0.357,1.195c-0.13,0.076-0.26,0.154-0.388,0.232l-0.609-0.407
	L84.25,24.191z M83.685,35.451l1.416-0.298l-1.097,1.148l-0.209,1.5l1.082-0.215c-2.437,2.393-4.854,4.914-7.192,7.688l-0.244-1.062
	l-0.232-1.651l-1.229-1.186l0.113-1.563l0.607-1.484l0.541-0.824c0.388-0.357,0.777-0.714,1.17-1.061l0.62-0.383l1.562-0.533
	l1.578-0.52L83.685,35.451z M74.841,18.612c2.334-2.391,4.026-3.761,4.664-4.3c0.113,0,1.246-0.581,3.146-1.37l-0.041,0.033
	l-1.352,1.186l-1.146,1.394l-1.111,0.947c-1.619,0.792-3.088,1.59-4.363,2.346C74.704,18.77,74.774,18.687,74.841,18.612z
	 M71.583,62.264l0.176,0.633l0.588-0.097l-0.677,0.942l-0.847-0.534L71.583,62.264z M69.043,58.777l0.709-1.104l0.808,1.394
	l-0.25,0.688C69.89,59.429,69.442,59.115,69.043,58.777z M70.03,60.511l-0.063,0.177l-0.62-0.716
	C69.571,60.157,69.805,60.332,70.03,60.511z M67.931,51.775l1.851-0.137l0.694,1.731l-0.53,1.682l-1.82-1.075l-1.576-1.496
	L67.931,51.775z M66.638,56.23l1.496-0.361l0.197,0.371l-0.713,1.252c-0.383-0.359-0.763-0.723-1.127-1.091L66.638,56.23z
	 M64.259,30.239l-1.145,1.365l-1.406,1.109l-1.061,1.464l-0.24,0.153c0.1-0.259,0.189-0.534,0.297-0.775
	c1.094-1.132,2.322-2.272,3.631-3.414L64.259,30.239z M64.823,59.415l0.58-1.736l0.621-0.728c0.35,0.361,0.718,0.715,1.091,1.065
	l-0.804,0.723L64.823,59.415z M71.634,72.989c-0.559,1.426-1.092,2.856-1.604,4.286c-1.34-0.832-2.616-1.701-3.836-2.595
	l0.313-0.087l1.256-1.07l1.286-0.966l1.403-0.877l0.781-1.762l1.123-1.526l1.143,0.245C72.854,70.063,72.23,71.511,71.634,72.989z
	 M74.574,20.138l-1.136,1.451l-1.441,1.127l-0.005,0.002c0.685-1.295,1.46-2.429,2.204-3.346c1.107-0.651,2.398-1.346,3.787-2.045
	l-0.646,0.513l-1.604,0.867L74.574,20.138z M78.851,48.874l-0.816,1.275l-1.012,1.087l-1.073,0.756l0.31-1.585l0.891-1.481
	l0.885-1.523l-0.127-0.915c0.766,0.647,1.573,1.275,2.412,1.878L78.851,48.874z M81.877,66.691
	c-0.138-0.064-0.278-0.123-0.417-0.187l0.491-0.104L81.877,66.691z M82.335,46.266l-0.436,1.644l-0.688,0.198
	c-1.075-0.742-2.105-1.507-3.059-2.315c2.404-2.873,4.895-5.476,7.403-7.947l0.328,0.794l0.851-1.342l0.021-0.635
	c0.461-0.441,0.916-0.928,1.379-1.358c1.267,1.067,2.646,2.046,4.096,2.924l-1.279,0.218l-1.795-0.3l-0.947,0.687l1.721,1.43
	l0.252,1.438c-0.203,0.253-0.412,0.496-0.611,0.754l-0.115-0.149l-1.119-0.989L86.9,41.173l-1.15,1.242l-1.344,1.092l-1.032,1.375
	L82.335,46.266z M84.607,67.903c-0.089-0.036-0.17-0.078-0.259-0.115l0.283,0.056C84.626,67.862,84.616,67.882,84.607,67.903z
	 M85.165,66.62l-0.021-0.076l-0.641-1.458l0.627-1.521l0.418-1.526l-0.985-0.999l-0.456-1.323l1.535,0.19l1.482,0.477l0.583,0.385
	C86.819,62.663,85.983,64.633,85.165,66.62z M94.671,71.25c-3.194-0.869-6.266-1.871-9.176-3.014c0.955-2.384,1.958-4.702,3-6.955
	l1.293,0.711l2.305-1.141l0.371,0.617l-1.387,0.829l-1.053,1.134l-0.771,1.332l1.227,1.224l0.98,1.46l1.646,0.588l1.609,0.545
	l0.255-1.79l-0.093-1.801l-0.859-1.568l0.014-1.64l0.459-1.59l0.596-1.545l-0.549-1.624l-0.546-1.658l-0.021-0.067
	c1.827,0.662,3.688,1.285,5.618,1.821C97.831,61.581,96.174,66.304,94.671,71.25z M106.151,73.708
	c-3.631-0.575-7.152-1.321-10.551-2.209c1.491-4.958,3.134-9.678,4.863-14.129c2.82,0.751,5.727,1.379,8.717,1.871
	C108.085,63.833,107.059,68.67,106.151,73.708z M118.399,74.997c-3.795-0.218-7.539-0.588-11.189-1.132
	c0.895-5.038,1.9-9.877,2.973-14.474c3.09,0.472,6.253,0.799,9.469,0.992C119.206,65.049,118.786,69.937,118.399,74.997z
	 M126.329,75.233c-2.262,0.008-4.51-0.065-6.75-0.172c0.373-5.061,0.774-9.95,1.189-14.616c0.595,0.031,1.183,0.076,1.783,0.097
	c2.454,0.078,4.893,0.055,7.314-0.026c0.27,4.668,0.529,9.558,0.764,14.616C129.204,75.186,127.772,75.229,126.329,75.233z
	 M130.929,59.651c-0.213-3.258-0.436-6.36-0.66-9.378l0.74,0.085l1.082-0.922l0.883-1.214l1.371-0.83l-1.578-0.538l-1.541,0.102
	l-1.203,0.047c-0.02-0.244-0.039-0.508-0.059-0.751c2.439-0.104,4.844-0.304,7.205-0.614c1.045,4.129,2.078,8.542,3.053,13.208
	C137.19,59.245,134.083,59.517,130.929,59.651z M131.813,75.087c-0.252-5.056-0.529-9.94-0.834-14.604
	c3.195-0.139,6.338-0.42,9.408-0.831c0.141,0.685,0.27,1.408,0.408,2.102l-0.281,0.945l-0.035,1.653l0.9,0.395
	c0.572,3.029,1.129,6.111,1.633,9.305C139.356,74.555,135.622,74.912,131.813,75.087z M148.96,74.68l-1.764,0.407l-1.789,0.35
	l-1.035,0.505c-0.053-0.364-0.105-0.744-0.162-1.107c2.008-0.3,3.982-0.653,5.93-1.046L148.96,74.68z M151.231,65.737l-1.33,0.604
	l-1.352,0.628l-0.846,1.171l1.033,1.333l1.406,1.011l0.963,1.467l-0.328,0.739c-2.203,0.459-4.43,0.875-6.715,1.21
	c-0.525-3.281-1.107-6.444-1.711-9.551l0.732-0.872l0.559-1.902l-0.617-1.927l-1.029-0.253c1.158-0.175,2.313-0.366,3.445-0.581
	l0.094,0.252l0.529,1.664l0.186,1.75l-0.281,1.739l-0.172,1.814l2.145,0.529l1.164-1.639l1.6-1.137l1.092-1.43
	c0.213,0.644,0.439,1.262,0.646,1.914L151.231,65.737z M155.468,57.979l-0.736,1.448l-1.299,1.018l-0.35,1.942l-0.15,0.463
	c-0.594-1.786-1.186-3.564-1.811-5.273c1.762-0.454,3.463-0.968,5.137-1.512l0.029,0.095l0.693,1.578L155.468,57.979z
	 M156.86,54.222l-1.346-1.101l0.266,1.529l0.227,0.678c-1.676,0.541-3.385,1.051-5.154,1.498c-1.678-4.554-3.443-8.83-5.23-12.8
	c2.16-0.548,4.268-1.168,6.283-1.911c0.076,0.121,0.152,0.258,0.225,0.381l0.197,1.011l-0.082,1.606l-1.107,1.184l-0.932,1.32
	l0.307,1.781l0.674,1.64l1.209,1.446l1.623-0.489l1.578-0.297l1.443,0.926l1.279,0.882c0.156,0.304,0.318,0.583,0.471,0.89
	c-0.309,0.116-0.643,0.21-0.953,0.321L156.86,54.222z M158.448,56.734l-0.525-0.473l0.402-0.905
	c0.262-0.094,0.543-0.174,0.807-0.274c0.188,0.385,0.367,0.799,0.557,1.188L158.448,56.734z M158.946,46.228l-0.285-1.621
	l0.102-1.616l0.162-1.607l0.301-0.737c0.4,0.505,0.799,1.033,1.199,1.55l-0.35,1.725l1.508,1.522l1.447,0.212
	c0.736,1.021,1.459,2.091,2.182,3.157l-0.621,1.663l0.641,1.091c-1.125,0.57-2.291,1.108-3.494,1.621l0.045-1.312l0.139-1.843
	l-0.643-1.729l0.441-0.229l-1.676-0.598L158.946,46.228z M164.06,53.703l-1.357,1.526l-1.391,0.503l-0.754,0.246
	c-0.199-0.402-0.383-0.832-0.582-1.231c1.977-0.77,3.832-1.639,5.619-2.556l0.09,0.151L164.06,53.703z M164.993,36.556
	c-0.35-0.342-0.693-0.728-1.043-1.063c0.912-0.754,1.762-1.55,2.547-2.396l-0.117,0.411l-0.111,1.562l0.283,1.604L164.993,36.556z
	 M164.817,33.889l0.34-1.11l-1.809-1.037l-1.797,0.556l-0.99,0.078c-2.73-2.426-5.438-4.618-8.045-6.572
	c0.285-0.227,0.609-0.44,0.875-0.676c0.646-0.546,1.201-1.12,1.697-1.702c3.297,1.956,6.734,4.233,10.195,6.816l-0.975,0.121
	l1.33,0.77l1.033,0.793C166.106,32.606,165.485,33.259,164.817,33.889z M165.528,22.377l0.834,2.093l-0.012,0.496
	c-1.861-1.091-3.709-2.091-5.531-3.019l-0.168-0.194l-1.24-1.241l-0.611-1.268l-0.836-1.172l0.096-0.401
	c2.738,1.011,5.551,2.178,8.395,3.529l0.246,0.204L165.528,22.377z M193.577,51.78l-0.445-0.208l0.059,0.401l-0.521-0.633
	L193.577,51.78z M188.382,46.504l0.443,0.135l0.479,1.469l0.084,1.568l0.502,0.534c-0.23,0.417-0.445,0.827-0.709,1.238
	l-0.465-0.527l-0.775-1.727l-0.203-1.965l0.814,0.18L188.382,46.504z M189.565,70.188l0.162,1.148
	c-0.217,0.196-0.414,0.402-0.637,0.595c-0.346-0.851-0.729-1.698-1.1-2.549l0.539-0.844L189.565,70.188z M185.698,56.925
	l1.441,0.437l1.053,1.09l-0.59,1.501l-1.34,1.035l-1.412,0.867l-0.352,0.366c-0.408-0.742-0.807-1.488-1.225-2.213l0.102-0.024
	l0.109-0.983C184.257,58.324,185.009,57.639,185.698,56.925z M182.519,55.951l0.117-1.507l0.861,1.295l0.459,1.639l0.238-0.076
	c-0.432,0.411-0.85,0.83-1.313,1.229l-0.355,0.189c-0.037-0.057-0.074-0.108-0.107-0.165l-0.125-1.201L182.519,55.951z
	 M182.12,60.28l0.432-0.102c0.488,0.844,0.955,1.715,1.422,2.582l-0.152,0.159l-1.029,1.117l-0.879,1.226l-1.029,1.203l-0.332-1.689
	l-0.836-1.443l-0.32-1.106c0.945-0.651,1.852-1.325,2.719-2.02L182.12,60.28z M179.261,58.659l1.332,0.052l1.236,0.26
	c0.063,0.106,0.133,0.201,0.195,0.308l0.004,0.023c-0.898,0.728-1.863,1.417-2.85,2.098l-0.281-1.266L179.261,58.659z
	 M179.636,74.534l0.791-0.175l-1.08-1.086l0.383-0.798l-1.166-0.963l-0.449-0.79c-0.09-0.218-0.176-0.435-0.27-0.647l0.43-1.262
	l1.396-0.753l1.15-1.342l-0.275,1.755l0.791,1.427l0.92,1.37l1.281,0.95l1.326-0.742l1.41-0.689l1.219-0.747
	c0.344,0.794,0.699,1.585,1.023,2.379c-2.279,1.939-4.867,3.747-7.689,5.423C180.448,76.741,180.044,75.637,179.636,74.534z
	 M189.442,75.691l-1.346,1.63l-1.666,1.242l-1.633,0.662l-1.789,0.137l-1.635,0.203c-0.104-0.318-0.186-0.635-0.293-0.954
	c2.83-1.699,5.416-3.53,7.713-5.495c0.334,0.845,0.604,1.687,0.916,2.533L189.442,75.691z M190.239,75.035
	c-0.297-0.799-0.549-1.592-0.867-2.39c0.176-0.156,0.328-0.322,0.498-0.478l0.459,1.581L190.239,75.035z M189.948,52.326
	l-0.301-0.343c0.01-0.019,0.025-0.033,0.035-0.052c0.262-0.402,0.463-0.803,0.684-1.207l0.734,0.784l1.74,0.602l1.365,1.269
	l1.045,1.517l0.91,1.677l-1.066,0.95l-1.396-1.172l-0.646-1.792l-1.654-1.038L189.948,52.326z M195.972,83.558
	c-0.275,0.279-0.586,0.549-0.877,0.822l-1.063-0.889l-1.143-1.587l-0.846-1.755l0.738-1.137l1.365,0.449l0.535,1.627l1.117,1.273
	l0.629,0.705C196.267,83.23,196.134,83.398,195.972,83.558z M203.173,67.042l0.188,0.952c-0.096-0.254-0.189-0.51-0.289-0.768
	L203.173,67.042z M202.739,70.773l-1.346-0.543l-1.021-1.022l-1.02-0.947l0.369-1.748l0.908,1.323l1.625,0.879l0.525-0.957
	c0.211,0.553,0.404,1.103,0.602,1.653L202.739,70.773z M204.913,60.497l0.445,0.27c0.037,0.496,0.066,1.021,0.08,1.587
	c-0.076-0.208-0.139-0.411-0.215-0.621c-0.107-0.308-0.242-0.631-0.357-0.943L204.913,60.497z M204.966,67.788l-0.074-0.119
	l-1.033-1.321l0.83-1.7l-0.111-2.093l0.178-1.089c0.047,0.127,0.105,0.26,0.15,0.384c0.188,0.518,0.363,1.019,0.533,1.515
	c0,0.172,0.006,0.326,0.002,0.505C205.427,65.059,205.259,66.384,204.966,67.788z M207.571,84.287
	c-0.008,0.029-0.025,0.065-0.035,0.094c-0.252-1.771-0.596-3.605-1.002-5.467l0.504-1.387l-0.197-1.656l-0.242-1.658l-0.426-1.635
	l-0.523-1.625l0.18-1.743l-0.447-0.737c0.287-1.351,0.457-2.641,0.492-3.815c1.865,5.662,2.678,9.95,3.055,12.1
	C208.884,77.62,208.878,80.298,207.571,84.287z M95.105,21.964l0.562-0.591l-1.752,0.267l-0.178,1.846l1.596-1.047L95.105,21.964z
	 M91.323,25.609l1.312-0.874l0.246-1.462l-1.526,0.069l-1.463,0.656l-0.664,1.365l0.897,1.257L91.323,25.609z"/>
</svg>
