<?xml version="1.0" encoding="utf-8"?>
<!-- Generator: Adobe Illustrator 16.0.0, SVG Export Plug-In . SVG Version: 6.00 Build 0)  -->
<!DOCTYPE svg PUBLIC "-//W3C//DTD SVG 1.1//EN" "http://www.w3.org/Graphics/SVG/1.1/DTD/svg11.dtd">
<svg version="1.1" id="Layer_1" xmlns="http://www.w3.org/2000/svg" xmlns:xlink="http://www.w3.org/1999/xlink" x="0px" y="0px"
	 width="251.976px" height="150px" viewBox="0 0 251.976 150" enable-background="new 0 0 251.976 150" xml:space="preserve">
<path fill="#E3D9D0" d="M21.476,120.913c9.639-1.635,21.393-5.765,35.004-10.546l8.704-3.043
	c19.857-6.869,33.564-9.508,43.137-8.302c8.155,0.797,13.05,4.536,15.147,6.134c1.059,0.808,1.541,1.181,2.255,1.025l0.575-0.123
	c0.621,0.054,1.115-0.298,2.08-1.035c2.094-1.598,6.992-5.336,15.143-6.133c9.576-1.207,23.283,1.432,43.141,8.301l8.703,3.043
	c13.613,4.781,25.367,8.912,35.006,10.547c11.473,2.414,19.18-0.752,20.057-2.086l0.336-0.604l-0.17-0.547
	c-0.342-1.094-1.379-0.932-2.48-0.754c-2.268,0.361-8.277,1.315-16.744-0.948c-7.65-1.757-16.953-5.146-27.725-9.069l-15.133-5.416
	c-20.109-6.948-35.035-9.389-45.59-7.461c-9.828,1.56-15.217,6.875-17.053,9.324c-1.92-2.504-7.282-7.658-16.943-9.191
	c-10.555-1.928-25.48,0.512-45.593,7.461l-15.13,5.416c-10.771,3.924-20.079,7.313-27.724,9.069
	c-8.468,2.263-14.478,1.309-16.745,0.947c-1.102-0.177-2.141-0.341-2.48,0.754l-0.171,0.548l0.336,0.603
	C2.298,120.162,10.004,123.327,21.476,120.913z M20.402,110.792c9.639-1.641,21.407-5.774,35.029-10.561l8.675-3.033
	c19.854-6.867,33.56-9.506,43.141-8.301c8.156,0.8,13.056,4.535,15.145,6.135c1.059,0.811,1.539,1.182,2.258,1.027l0.586-0.127
	c0.637,0.074,1.13-0.281,2.115-1.033c2.09-1.599,6.984-5.334,15.145-6.135c9.576-1.205,23.283,1.434,43.137,8.301l8.68,3.033
	c13.621,4.787,25.385,8.921,35.029,10.561c11.486,2.412,19.188-0.756,20.057-2.091l0.346-0.612l-0.186-0.553
	c-0.354-1.074-1.389-0.911-2.484-0.736c-2.264,0.363-8.273,1.317-16.73-0.947c-7.646-1.756-16.949-5.143-27.721-9.07l-15.139-5.414
	c-20.113-6.949-35.033-9.391-45.59-7.465c-9.877,1.568-15.264,6.924-17.074,9.359c-1.903-2.492-7.271-7.687-16.971-9.227
	c-10.561-1.926-25.48,0.514-45.59,7.465l-15.137,5.414c-10.773,3.926-20.076,7.314-27.721,9.07
	c-8.458,2.264-14.473,1.311-16.736,0.946c-1.096-0.175-2.131-0.337-2.479,0.737L0,108.089l0.341,0.611
	C1.216,110.037,8.917,113.204,20.402,110.792z M251.612,127.214c-0.338-1.096-1.379-0.93-2.48-0.755
	c-2.268,0.361-8.281,1.318-16.744-0.95c-7.648-1.753-16.951-5.143-27.725-9.066l-15.133-5.418
	c-20.104-6.947-35.029-9.385-45.59-7.462c-10.125,1.608-15.525,7.19-17.193,9.53c-2.074-2.58-7.393-7.459-16.748-8.944
	c-10.556-1.923-25.487,0.516-45.592,7.462l-15.133,5.418c-10.771,3.924-20.074,7.313-27.725,9.066
	c-8.463,2.268-14.477,1.311-16.74,0.95c-1.105-0.175-2.145-0.341-2.48,0.755l-0.17,0.544l0.332,0.604
	c0.877,1.333,8.584,4.499,20.061,2.088c9.643-1.639,21.408-5.774,35.029-10.559l8.68-3.034c19.857-6.87,33.564-9.505,43.137-8.301
	c8.156,0.799,13.049,4.536,15.143,6.136c1.063,0.811,1.545,1.178,2.258,1.026l1.221-0.696c0.373-0.164,0.783-0.461,1.379-0.916
	c2.094-1.6,6.994-5.337,15.143-6.136c9.574-1.205,23.283,1.431,43.143,8.302l8.674,3.033c13.623,4.786,25.391,8.92,35.029,10.559
	c11.477,2.41,19.184-0.755,20.063-2.088l0.334-0.604L251.612,127.214z"/>
</svg>
