<?xml version="1.0" encoding="utf-8"?>
<!-- Generator: Adobe Illustrator 17.0.1, SVG Export Plug-In . SVG Version: 6.00 Build 0)  -->
<!DOCTYPE svg PUBLIC "-//W3C//DTD SVG 1.1//EN" "http://www.w3.org/Graphics/SVG/1.1/DTD/svg11.dtd">
<svg version="1.1" id="Layer_1" xmlns="http://www.w3.org/2000/svg" xmlns:xlink="http://www.w3.org/1999/xlink" x="0px" y="0px"
	 width="200px" height="40px" viewBox="0 0 200 40" enable-background="new 0 0 200 40" xml:space="preserve">
<g>
	<path fill="#3D566E" d="M10.907,9.257c-3.071,0-5.657,1.025-7.756,3.076C1.051,14.384,0,16.934,0,19.985s1.051,5.602,3.151,7.652
		c2.099,2.051,4.684,3.076,7.756,3.076c3.07,0,5.655-1.025,7.756-3.076c2.1-2.05,3.15-4.601,3.15-7.652s-1.05-5.601-3.15-7.652
		C16.562,10.282,13.977,9.257,10.907,9.257z M15.305,24.725c-1.189,1.297-2.649,1.947-4.383,1.947s-3.195-0.649-4.383-1.947
		c-1.189-1.297-1.782-2.872-1.782-4.726c0-1.851,0.594-3.432,1.782-4.739c1.189-1.308,2.649-1.963,4.383-1.963
		s3.195,0.654,4.383,1.963c1.189,1.307,1.784,2.888,1.784,4.739C17.088,21.853,16.493,23.427,15.305,24.725z"/>
	<polygon fill="#3D566E" points="39.197,23.106 29.004,9.732 24.666,9.732 24.666,30.505 29.301,30.505 29.301,17.489 
		39.197,30.505 43.833,30.505 43.833,9.732 39.197,9.732 	"/>
	<polygon fill="#3D566E" points="51.441,26.404 51.441,22.095 57.278,22.095 58.319,18.142 51.441,18.142 51.441,13.863 
		59.446,13.863 60.534,9.732 46.806,9.732 46.806,30.505 55.063,30.505 56.143,26.404 	"/>
</g>
<path fill="#00CCFF" d="M77.533,19.718c0.357-0.158,0.605-0.272,0.744-0.342c0.138-0.069,0.386-0.242,0.742-0.52
	c1.05-0.792,1.574-2,1.574-3.625c0-1.347-0.466-2.556-1.397-3.625c-0.515-0.574-1.283-1.03-2.302-1.368
	c-1.021-0.336-2.235-0.505-3.641-0.505h-2.379l-1.033,3.923h2.194c1.366,0,2.337,0.149,2.912,0.446
	c0.574,0.297,0.862,0.907,0.862,1.827c0,0.921-0.312,1.521-0.936,1.798c-0.624,0.278-1.58,0.416-2.868,0.416h-2.2V13.79
	l-4.402,16.715h8.86c2.852,0,4.854-0.643,6.002-1.931c0.99-1.11,1.486-2.388,1.486-3.834c0-1.307-0.382-2.401-1.144-3.283
	C79.846,20.575,78.82,19.996,77.533,19.718z M75.973,26.091c-0.664,0.328-1.66,0.491-2.987,0.491h-3.18v-4.785h2.734
	c1.545,0,2.67,0.154,3.374,0.461c0.703,0.307,1.054,0.942,1.054,1.902C76.968,25.122,76.637,25.765,75.973,26.091z"/>
<path fill="#00CCFF" d="M97.444,21.204c0,1.664-0.382,2.977-1.144,3.937c-0.763,0.961-1.798,1.441-3.105,1.441
	c-1.308,0-2.348-0.48-3.121-1.441c-0.773-0.96-1.158-2.273-1.158-3.937V9.732H84.28v11.62c0,2.992,0.837,5.3,2.51,6.924
	c1.675,1.624,3.809,2.437,6.405,2.437c2.595,0,4.724-0.807,6.388-2.422c1.665-1.614,2.497-3.927,2.497-6.938V9.732h-4.636V21.204z"
	/>
<rect x="104.755" y="9.732" fill="#00CCFF" width="4.635" height="20.773"/>
<polygon fill="#00CCFF" points="116.998,9.732 112.363,9.732 112.363,30.505 125.854,30.505 125.854,26.374 116.998,26.374 "/>
<path fill="#00CCFF" d="M136.582,9.732h-7.34v20.773h7.102c3.963,0,6.909-0.941,8.842-2.823c1.931-1.881,2.897-4.438,2.897-7.666
	c0-3.23-0.992-5.751-2.972-7.564C143.13,10.639,140.286,9.732,136.582,9.732z M141.708,24.799c-1.139,1.07-2.769,1.606-4.889,1.606
	h-2.942v-12.63h2.586c2.357,0,4.105,0.549,5.244,1.649c1.139,1.099,1.709,2.67,1.709,4.71
	C143.417,22.175,142.847,23.73,141.708,24.799z"/>
<rect x="151.026" y="9.732" fill="#00CCFF" width="4.635" height="20.773"/>
<polygon fill="#00CCFF" points="173.165,23.106 162.972,9.732 158.634,9.732 158.634,30.505 163.269,30.505 163.269,17.489 
	173.165,30.505 177.801,30.505 177.801,9.732 173.165,9.732 "/>
<path fill="#00CCFF" d="M195.335,19.926v5.706c-1.071,0.614-2.409,0.92-4.012,0.92c-1.606,0-2.987-0.589-4.148-1.768
	c-1.158-1.178-1.736-2.749-1.736-4.71s0.602-3.542,1.811-4.74s2.694-1.798,4.457-1.798c0.912,0,1.758,0.154,2.542,0.461
	c0.784,0.307,1.64,0.867,2.571,1.68l2.406-3.478c-2.198-1.961-4.788-2.942-7.77-2.942s-5.529,1.03-7.637,3.091
	c-2.111,2.06-3.166,4.631-3.166,7.712c0,3.08,1.035,5.631,3.105,7.652c2.07,2.021,4.631,3.031,7.683,3.031
	c3.645,0,6.498-1.149,8.559-3.447v-7.37C200,19.926,195.335,19.926,195.335,19.926z"/>
<polygon points="69.806,13.79 69.842,13.655 69.806,13.655 "/>
<g>
	<polygon fill="#F0F0F0" points="71.905,0 64.63,0 54.095,40 61.37,40 	"/>
</g>
</svg>
